<svg width="186" height="318" viewBox="0 0 186 318" fill="none" xmlns="http://www.w3.org/2000/svg">
<g opacity="0.26" clip-path="url(#clip0_19_280)">
<path d="M111.781 317.552L110.114 313.319C113.312 312.058 116.554 310.752 119.707 309.401L121.508 313.589C118.266 314.985 115.023 316.336 111.736 317.597L111.781 317.552ZM131.101 309.085L129.075 305.032C132.272 303.456 135.29 301.79 138.127 300.168L140.424 304.086C137.496 305.798 134.344 307.509 131.056 309.131L131.101 309.085ZM149.431 298.322L146.819 294.584C149.656 292.557 152.404 290.485 154.926 288.324L157.898 291.791C155.286 294.043 152.449 296.25 149.476 298.322H149.431ZM165.599 284.315L162.221 281.253C164.518 278.731 166.635 276.074 168.572 273.327L172.31 275.939C170.283 278.866 168.031 281.703 165.599 284.36V284.315ZM177.804 266.661L173.751 264.589C175.282 261.527 176.588 258.374 177.624 255.267L181.947 256.663C180.867 260.041 179.47 263.373 177.804 266.616V266.661ZM184.47 246.169L179.966 245.494C180.371 242.927 180.551 240.315 180.551 237.793C180.551 237.027 180.551 236.261 180.506 235.541L185.055 235.316C185.055 236.126 185.1 236.982 185.1 237.793C185.1 240.54 184.875 243.377 184.47 246.169ZM179.02 225.678C178.164 222.48 176.993 219.328 175.507 216.355L179.561 214.329C181.182 217.571 182.488 221.039 183.389 224.552L178.975 225.723L179.02 225.678ZM170.193 207.843C168.211 205.276 165.96 202.754 163.392 200.367L166.5 197.035C169.202 199.557 171.634 202.259 173.796 205.051L170.193 207.798V207.843ZM155.556 193.972C152.899 192.081 149.972 190.234 146.909 188.523L149.116 184.56C152.313 186.361 155.376 188.298 158.168 190.279L155.511 193.972H155.556ZM137.722 183.929C134.704 182.578 131.507 181.272 128.174 180.101L129.705 175.822C133.128 177.038 136.416 178.39 139.568 179.786L137.722 183.929ZM118.356 176.903C116.374 176.318 114.438 175.822 112.456 175.327C111.06 174.967 109.709 174.652 108.313 174.336L109.349 169.923C110.745 170.238 112.141 170.598 113.537 170.959C115.564 171.454 117.545 171.994 119.572 172.58L118.311 176.948L118.356 176.903ZM98.1796 171.994L87.9563 169.743L88.9471 165.284L99.1704 167.536L98.1796 171.994ZM77.733 167.311C74.3102 166.455 70.8875 165.554 67.5548 164.563L68.8158 160.195C72.1034 161.141 75.4812 162.041 78.8139 162.897L77.733 167.311ZM57.4666 161.321C53.9988 160.06 50.6661 158.709 47.6036 157.312L49.4951 153.169C52.4675 154.52 55.6651 155.826 58.9978 157.042L57.4666 161.321ZM38.1009 152.313C34.9934 150.467 31.9759 148.395 29.2287 146.234L32.021 142.631C34.6331 144.657 37.4704 146.594 40.3977 148.35L38.0558 152.268L38.1009 152.313ZM21.2572 139.028C18.8253 136.461 16.5284 133.623 14.4117 130.696L18.1047 128.084C20.0412 130.831 22.203 133.488 24.5449 135.92L21.2572 139.073V139.028ZM8.82715 121.463C7.20584 118.311 5.71964 114.978 4.54869 111.6L8.82715 110.069C9.95307 113.267 11.3492 116.374 12.8804 119.392L8.82715 121.463ZM1.62131 101.287C0.855694 97.7742 0.360292 94.1713 0.090073 90.6134L4.63876 90.2531C4.90898 93.5858 5.35934 96.9636 6.07993 100.296L1.62131 101.242V101.287ZM4.54869 80.1199L0 79.8047C0.225183 76.2018 0.720584 72.5988 1.4862 69.131L5.94482 70.0768C5.26927 73.3194 4.77387 76.6972 4.54869 80.1199ZM8.78212 60.439L4.54869 58.8177C5.80971 55.485 7.34095 52.1973 9.09737 49.0448L13.0606 51.2515C11.3942 54.2239 9.95307 57.3315 8.78212 60.439ZM18.6001 42.7396L14.9521 39.9924C17.1139 37.1551 19.4558 34.4079 21.9778 31.8408L25.2204 35.0384C22.8335 37.4253 20.6267 40.0374 18.6001 42.6946V42.7396ZM32.8316 28.373L30.0393 24.7701C32.8766 22.5633 35.8941 20.5817 38.9566 18.7802L41.2084 22.6984C38.281 24.3647 35.4437 26.2563 32.7866 28.328L32.8316 28.373ZM50.3958 18.2398L48.6845 14.0064C52.0172 12.6553 55.485 11.5293 58.9528 10.7187L60.0337 15.1323C56.791 15.8979 53.5484 16.9788 50.3958 18.2398Z" fill="#393939"/>
<path d="M39.7672 0L37.7406 4.09832L57.9169 13.9163L46.6578 33.282L50.621 35.5788L64.3121 11.9347L39.7672 0Z" fill="#393939"/>
</g>
<defs>
<clipPath id="clip0_19_280">
<rect width="185.1" height="317.552" fill="white"/>
</clipPath>
</defs>
</svg>
