<svg width="230" height="270" viewBox="0 0 230 270" fill="none" xmlns="http://www.w3.org/2000/svg">
<g opacity="0.26" clip-path="url(#clip0_19_280)">
<path d="M-95.2588 199.891L-91.6991 197.058C-89.5568 199.746 -87.3582 202.464 -85.143 205.082L-88.62 208.031C-90.9047 205.34 -93.1464 202.635 -95.315 199.861L-95.2588 199.891ZM-81.5041 215.884L-78.2223 212.759C-75.7785 215.355 -73.3014 217.752 -70.9201 219.99L-73.9937 223.334C-76.4875 221.036 -79.0472 218.523 -81.5604 215.855L-81.5041 215.884ZM-65.8435 230.258L-63.0346 226.665C-60.2658 228.784 -57.4802 230.804 -54.6746 232.583L-57.1197 236.44C-60.0379 234.602 -62.9789 232.536 -65.8304 230.301L-65.8435 230.258ZM-47.7158 241.614L-45.777 237.487C-42.6928 238.945 -39.5322 240.19 -36.3382 241.237L-37.7409 245.576C-41.1335 244.496 -44.5059 243.174 -47.7588 241.627L-47.7158 241.614ZM-27.2609 248.113L-26.4673 243.63C-23.0906 244.197 -19.6938 244.523 -16.4191 244.603L-16.4877 249.146C-20.0339 249.102 -23.6293 248.743 -27.2178 248.099L-27.2609 248.113ZM-5.71567 248.483L-6.3889 243.979C-3.81567 243.615 -1.26536 243.022 1.14607 242.284C1.8781 242.059 2.61015 241.835 3.28594 241.581L4.83359 245.864C4.05848 246.102 3.25351 246.395 2.47841 246.633C-0.148334 247.437 -2.92715 248.053 -5.71567 248.483ZM12.281 237.271C15.0877 235.516 17.759 233.473 20.1658 231.182L23.2908 234.463C20.6652 236.963 17.7321 239.228 14.6371 241.118L12.2248 237.241L12.281 237.271ZM26.7477 223.607C28.6218 220.961 30.3737 218.069 31.904 214.915L36.0008 216.91C34.3808 220.233 32.5095 223.349 30.4729 226.234L26.7908 223.594L26.7477 223.607ZM35.7234 205.549C36.7537 202.455 37.6617 199.115 38.401 195.685L42.8368 196.634C42.051 200.219 41.0963 203.715 40.0195 206.965L35.7102 205.506L35.7234 205.549ZM40.1022 185.555C40.5102 182.274 40.8224 178.835 40.9658 175.305L45.5052 175.516C45.3451 179.145 45.0162 182.684 44.6047 186.107L40.1022 185.555ZM41.1475 164.981C41.1268 162.915 41.0333 160.918 40.9265 158.878C40.8621 157.438 40.7678 156.054 40.6603 154.626L45.1837 154.324C45.2912 155.751 45.3556 157.192 45.4201 158.632C45.54 160.715 45.6037 162.768 45.6375 164.877L41.0912 164.951L41.1475 164.981ZM39.9314 144.252L39.09 133.817L43.6432 133.459L44.4846 143.893L39.9314 144.252ZM38.4208 123.33C38.2364 119.807 38.0951 116.27 38.0663 112.794L42.6126 112.72C42.6713 116.14 42.7994 119.634 42.9574 123.071L38.4208 123.33ZM38.2118 102.198C38.4018 98.5129 38.7174 94.9307 39.1553 91.5936L43.671 92.1885C43.2498 95.4263 42.9376 98.8662 42.7511 102.409L38.2118 102.198ZM41.1517 81.0434C42.007 77.5313 43.104 74.0394 44.3662 70.7795L48.629 72.394C47.4564 75.4851 46.4358 78.7652 45.6139 82.0787L41.1816 80.9871L41.1517 81.0434ZM48.9211 61.047C50.6633 57.9698 52.7034 54.9426 54.8824 52.0613L58.4616 54.8272C56.4021 57.4835 54.4947 60.3287 52.8554 63.2803L48.8781 61.0602L48.9211 61.047ZM62.0742 44.0174C64.6136 41.5438 67.3648 39.1466 70.2514 37.0377L72.9687 40.68C70.2411 42.6931 67.6788 44.9382 65.2422 47.2861L62.0742 44.0174ZM79.255 31.2178C82.3895 29.4569 85.6893 27.9279 89.012 26.6274L90.6888 30.871C87.5815 32.1056 84.4838 33.5255 81.5083 35.1907L79.2981 31.2046L79.255 31.2178ZM100.351 27.8168L99.3203 23.3753C102.831 22.5353 106.421 21.9536 109.961 21.6699L110.363 26.21C107.065 26.5139 103.69 27.0296 100.351 27.8168ZM120.409 26.0999L120.719 21.5773C124.275 21.8068 127.867 22.3079 131.396 23.0639L130.447 27.4997C127.117 26.777 123.723 26.3093 120.409 26.0999ZM140.208 30.303L141.766 26.0104C145.112 27.2463 148.425 28.6808 151.618 30.3403L149.51 34.3773C146.529 32.7942 143.385 31.4493 140.251 30.2898L140.208 30.303ZM158.113 39.7023L160.74 35.9772C163.681 38.0437 166.459 40.3483 169.079 42.7488L165.992 46.0496C163.541 43.7387 160.902 41.5799 158.143 39.646L158.113 39.7023ZM172.946 53.5281L176.493 50.6518C178.761 53.4426 180.853 56.4285 182.644 59.5068L178.741 61.833C177.059 58.9568 175.075 56.173 172.946 53.5281Z" fill="#393939"/>
<path d="M187.273 38.0231L182.761 37.2858L179.283 59.4529L157.469 54.3599L156.434 58.8221L183.051 64.9872L187.273 38.0231Z" fill="#393939"/>
</g>
<defs>
<clipPath id="clip0_19_280">
<rect width="185.1" height="317.552" fill="white" transform="translate(175.625) rotate(72.968)"/>
</clipPath>
</defs>
</svg>
