<svg width="243" height="383" viewBox="0 0 243 383" fill="none" xmlns="http://www.w3.org/2000/svg">
<g opacity="0.25" clip-path="url(#clip0_19_285)">
<path d="M23.6798 250.389L26.8944 247.174C29.1224 249.402 31.7959 251.248 34.7877 252.649L32.8462 256.754C29.377 255.131 26.2897 252.999 23.6798 250.389ZM17.3143 241.095C15.8502 237.721 15.0545 234.061 14.8317 230.146L19.383 229.924C19.5422 233.266 20.2742 236.417 21.4837 239.281L17.3143 241.095ZM43.413 259.937L44.1451 255.449C47.2005 255.959 50.6061 256.182 54.139 256.086L54.2344 260.637C50.3833 260.733 46.7231 260.51 43.3812 259.969L43.413 259.937ZM179.381 395.141C176.93 392.627 174.511 390.017 172.22 387.344L175.657 384.352C177.917 386.93 180.272 389.476 182.628 391.959L179.349 395.11L179.381 395.141ZM186.924 402.557L190.012 399.215C192.526 401.539 195.136 403.83 197.778 406.027L194.849 409.528C192.144 407.268 189.502 404.944 186.924 402.557ZM165.472 379.196C163.308 376.395 161.208 373.594 159.202 370.698L162.926 368.12C164.868 370.952 166.936 373.721 169.069 376.427L165.504 379.228L165.472 379.196ZM203.156 416.052L205.862 412.392C208.631 414.461 211.432 416.434 214.296 418.344L211.782 422.131C208.854 420.158 205.957 418.153 203.125 416.02L203.156 416.052ZM153.378 361.818C151.532 358.826 149.749 355.771 148.063 352.683L152.073 350.519C153.696 353.543 155.447 356.503 157.261 359.463L153.41 361.85L153.378 361.818ZM220.821 427.733L223.144 423.818C226.104 425.569 229.16 427.224 232.183 428.783L230.115 432.826C226.964 431.202 223.876 429.515 220.853 427.701L220.821 427.733ZM15.9457 219.166C16.8368 215.601 18.2054 212.132 20.0196 208.917L23.9981 211.113C22.3749 214.01 21.1654 217.065 20.4015 220.248L16.0093 219.166L15.9457 219.166ZM143.288 343.262C141.793 340.111 140.36 336.833 139.055 333.555L143.288 331.868C144.562 335.051 145.962 338.233 147.394 341.321L143.288 343.262ZM239.631 437.441L241.477 433.303C244.596 434.703 247.811 436.008 251.025 437.25L249.434 441.515C246.124 440.241 242.877 438.905 239.663 437.472L239.631 437.441ZM64.9604 259.587L64.2284 255.099C67.4111 254.59 70.8167 253.858 74.2223 252.935L75.3681 257.327C71.8034 258.282 68.2705 259.014 64.9285 259.555L64.9604 259.587ZM135.395 323.593C134.759 321.619 134.09 319.614 133.517 317.641C133.104 316.272 132.722 314.872 132.34 313.471L136.732 312.262C137.082 313.631 137.464 314.967 137.878 316.336C138.451 318.309 139.087 320.219 139.692 322.16L135.395 323.593ZM259.396 444.92L260.733 440.591C263.979 441.61 267.321 442.533 270.663 443.392L269.549 447.816C266.144 446.957 262.706 446.002 259.364 444.952L259.396 444.92ZM129.794 303.223C128.998 299.817 128.266 296.412 127.566 292.974L131.99 292.051C132.722 295.457 133.422 298.831 134.218 302.236L129.762 303.255L129.794 303.223ZM26.6398 200.069C29.2815 197.428 32.2415 195.231 35.3924 193.608L37.7158 197.523C34.724 199.051 32.1778 200.96 29.8544 203.284L26.6398 200.069ZM85.5848 254.24L84.1207 249.911C87.399 248.798 90.6454 247.652 93.8918 246.442L95.4832 250.707C92.2049 251.948 88.863 253.126 85.5848 254.24ZM125.465 282.726C124.797 279.32 124.065 275.915 123.301 272.541L127.725 271.554C128.457 274.96 129.157 278.397 129.889 281.803L125.433 282.694L125.465 282.726ZM46.9459 194.277L45.9911 189.821C49.4921 189.057 53.1523 188.707 56.8762 188.802L56.7807 193.354C53.4069 193.29 50.0968 193.608 46.9459 194.277ZM105.286 246.824L103.567 242.623C106.75 241.286 109.933 239.949 113.084 238.517C112.32 236.735 111.524 234.984 110.697 233.329L114.771 231.356C116.267 234.443 117.699 237.721 119.004 241.127L114.771 242.75C111.62 244.182 108.469 245.551 105.254 246.856L105.286 246.824ZM120.945 262.42C120.595 261.051 120.245 259.683 119.863 258.346C119.322 256.404 118.749 254.431 118.145 252.49L122.473 251.153C123.078 253.158 123.683 255.163 124.224 257.168C124.606 258.569 124.956 259.937 125.306 261.306L120.882 262.42H120.945ZM66.7109 194.563L67.6976 190.139C71.1668 190.935 74.636 192.049 78.0098 193.513L76.2274 197.714C73.1083 196.377 69.9255 195.359 66.7109 194.627L66.7109 194.563ZM105.764 224.386C103.949 221.426 101.944 218.657 99.8754 216.079L103.408 213.246C105.604 215.951 107.673 218.911 109.615 221.999L105.764 224.386ZM85.1392 202.424L87.6218 198.605C90.0088 200.165 92.2686 201.852 94.3692 203.698C94.974 204.239 95.5469 204.748 96.1516 205.289L93.0325 208.599C92.5232 208.09 91.9503 207.581 91.3774 207.135C89.4359 205.448 87.3353 203.857 85.1392 202.424ZM124.446 238.167L122.441 234.061C125.56 232.534 128.616 230.942 131.671 229.351L133.804 233.393C130.685 235.048 127.566 236.639 124.415 238.199L124.446 238.167ZM143.066 228.269L140.838 224.322C143.83 222.603 146.821 220.821 149.781 219.007L152.168 222.858C149.177 224.704 146.185 226.486 143.097 228.237L143.066 228.269ZM160.985 217.288L158.502 213.469C161.398 211.591 164.263 209.618 167.096 207.612L169.737 211.336C166.873 213.373 163.977 215.315 161.017 217.256L160.985 217.288ZM178.204 205.162L175.466 201.533C178.235 199.465 180.973 197.364 183.678 195.168L186.511 198.701C183.773 200.865 180.973 203.029 178.172 205.13L178.204 205.162ZM194.658 192.017L191.698 188.548C194.34 186.288 196.918 184.028 199.496 181.705L202.552 185.078C199.942 187.434 197.3 189.757 194.627 191.985L194.658 192.017ZM210.286 177.917L207.135 174.639C208.854 172.984 210.604 171.297 212.291 169.61L214.551 167.35L217.765 170.565L215.474 172.857C213.755 174.575 212.036 176.294 210.286 177.981L210.286 177.917ZM221.68 159.839C224.035 157.293 226.359 154.715 228.587 152.105L232.024 155.097C229.701 157.738 227.377 160.38 224.99 162.958L221.648 159.871L221.68 159.839ZM235.334 144.148C237.499 141.474 239.663 138.737 241.764 136L245.36 138.769C243.228 141.538 241.031 144.307 238.835 147.012L235.302 144.116L235.334 144.148ZM247.938 127.661C249.975 124.86 251.948 121.996 253.858 119.131L257.614 121.677C255.64 124.606 253.667 127.47 251.598 130.303L247.906 127.629L247.938 127.661ZM259.555 110.442C261.401 107.514 263.215 104.554 264.934 101.562L268.881 103.854C267.13 106.878 265.284 109.869 263.438 112.861L259.619 110.442L259.555 110.442ZM270.027 92.5233C271.682 89.4678 273.273 86.4123 274.833 83.3251L278.907 85.362C277.315 88.4812 275.724 91.6003 274.037 94.6876L270.027 92.5233ZM279.352 73.9677C280.784 70.8167 282.217 67.6658 283.553 64.483L287.755 66.2654C286.386 69.48 284.954 72.6946 283.49 75.8774L279.352 73.9677Z" fill="#393939"/>
</g>
<defs>
<clipPath id="clip0_19_285">
<rect width="346.947" height="320.615" fill="white" transform="translate(226.709) rotate(45)"/>
</clipPath>
</defs>
</svg>
