<svg width="359" height="118" viewBox="0 0 359 118" fill="none" xmlns="http://www.w3.org/2000/svg">
<g opacity="0.25" clip-path="url(#clip0_19_448)">
<path d="M375.668 117.788C374.516 114.747 372.811 111.935 370.599 109.355L374.148 106.313C376.682 109.309 378.664 112.581 380.046 116.129L375.714 117.788H375.668ZM363.042 102.765C360.323 100.968 357.281 99.4009 353.963 98.1106L355.668 93.7788C359.263 95.2074 362.627 96.9124 365.622 98.894L363.042 102.765ZM271.797 100.737C271.244 100.737 270.645 100.737 270.092 100.737L270.184 96.083H272.028C274.747 96.083 277.558 95.9908 280.645 95.7143L281.014 100.369C277.742 100.645 274.747 100.783 271.751 100.783L271.797 100.737ZM259.032 99.4931C255.346 98.7558 251.751 97.6959 248.387 96.3134L250.092 91.9816C253.226 93.2258 256.544 94.2396 259.954 94.9309L259.032 99.4931ZM291.797 99.0323L291.106 94.424C294.516 93.9171 297.926 93.318 301.336 92.765L302.028 95.023L302.396 97.3272C298.664 97.9724 295.207 98.5253 291.797 99.0783V99.0323ZM312.903 95.576L312.212 90.9677C316.313 90.3687 319.724 89.9539 322.995 89.6774L323.364 94.3318C320.184 94.6083 316.866 94.977 312.903 95.576ZM344.055 95.2535C340.691 94.5622 337.235 94.1475 333.779 94.0553L333.963 89.4009C337.65 89.5392 341.336 90 344.931 90.6912L344.009 95.2535H344.055ZM238.479 91.1521C235.207 88.9862 232.304 86.4977 229.954 83.7788L233.456 80.7373C235.576 83.1336 238.111 85.3456 241.06 87.3272L238.479 91.1982V91.1521ZM223.917 74.0553C222.995 71.7512 222.35 69.3548 222.028 66.9124C221.843 65.53 221.705 64.1936 221.705 62.8111L226.359 62.7189C226.359 63.917 226.498 65.0691 226.636 66.2673C226.912 68.341 227.465 70.4147 228.249 72.3502L223.917 74.0553ZM227.281 52.5346L222.719 51.7051C223.088 49.7235 223.456 47.7419 223.871 45.7143C224.194 44.1936 224.516 42.6728 224.793 41.1521L229.355 42.0276C229.078 43.5484 228.756 45.1152 228.433 46.682C228.018 48.6175 227.65 50.553 227.281 52.5346ZM5.52996 52.4885L3.73273 48.2028C7.0507 46.8203 10.3687 45.4839 13.6866 44.1475L15.3917 48.4793C12.0737 49.8157 8.80185 51.1521 5.52996 52.4885ZM25.3917 44.6083L23.7327 40.2765C27.0968 38.9862 30.4148 37.7419 33.7788 36.5438L35.3917 40.9217C32.0277 42.1198 28.7097 43.3641 25.3917 44.6544V44.6083ZM45.4378 37.3272L43.9171 32.9493C47.2811 31.7972 50.6913 30.6452 54.1014 29.4931L55.576 33.9171C52.212 35.023 48.8479 36.1751 45.4839 37.3272H45.4378ZM225.945 30.9677C225.945 27.6498 225.53 24.8848 224.608 22.3041C224.516 21.9816 224.378 21.659 224.24 21.3364L228.571 19.6313C228.71 20 228.848 20.4147 228.986 20.7834C230.046 23.8249 230.553 27.0968 230.553 30.7373L225.899 30.9217L225.945 30.9677ZM65.7143 30.6452L64.3318 26.2212C67.742 25.1613 71.1521 24.1014 74.6083 23.0876L75.9447 27.5576C72.5346 28.5714 69.1244 29.6313 65.7604 30.6912L65.7143 30.6452ZM86.1291 24.5622L84.8848 20.0922C88.341 19.1244 91.7973 18.2028 95.2535 17.2811L96.4516 21.7972C92.9954 22.7189 89.5853 23.6406 86.1751 24.6083L86.1291 24.5622ZM106.774 19.0783L105.668 14.5622C109.124 13.6866 112.627 12.8571 116.129 12.0276L117.189 16.5438C113.733 17.3733 110.277 18.2028 106.82 19.0323L106.774 19.0783ZM127.558 14.1935L126.544 9.63134C130.046 8.84793 133.548 8.1106 137.051 7.41935L137.972 11.9816C134.47 12.6728 131.014 13.4101 127.512 14.1935H127.558ZM218.848 13.4562C216.59 11.3825 213.779 9.63134 210.507 8.29493L212.304 4.00922C216.129 5.57604 219.401 7.60369 222.028 10.0922L218.848 13.5023V13.4562ZM148.479 10L147.604 5.43779C151.106 4.79263 154.654 4.14747 158.157 3.54839L158.94 8.15668C155.438 8.75576 151.936 9.40092 148.433 10.0461L148.479 10ZM169.493 6.35945L168.802 1.75115L172.028 1.24424C174.47 0.875576 177.005 0.552995 179.585 0.322581L180 4.97696C177.512 5.20737 175.069 5.48387 172.719 5.85253L169.539 6.35945H169.493ZM200.737 5.57604C197.558 5.02304 194.101 4.74654 190.415 4.65438L190.507 0C194.378 0.0921659 198.111 0.414747 201.521 1.01382L200.737 5.62212V5.57604Z" fill="#393939"/>
<path d="M25.9447 62.6723L27.6959 58.3405L6.35945 49.8151L16.4055 29.2161L12.212 27.1423L0 52.3036L25.9447 62.6723Z" fill="#393939"/>
</g>
<defs>
<clipPath id="clip0_19_448">
<rect width="380" height="117.788" fill="white"/>
</clipPath>
</defs>
</svg>
