<svg width="357" height="212" viewBox="0 0 357 212" fill="none" xmlns="http://www.w3.org/2000/svg">
<g opacity="0.25" clip-path="url(#clip0_19_463)">
<path d="M-8.00004 83.9747L-3.13404 85.8832C-1.68461 82.2209 -0.183386 78.507 1.36959 74.8963L-3.44462 72.8331C-5.04935 76.547 -6.60233 80.2608 -8.05176 84.0263L-8.00004 83.9747ZM1.73196 61.8462L6.39083 64.1674C8.20263 60.5051 10.118 57.0491 11.9815 53.7995L7.47796 51.1688C5.51086 54.5216 3.54376 58.1324 1.68017 61.8978L1.73196 61.8462ZM14.104 40.8525L18.4005 43.8443C20.7299 40.5946 23.1112 37.4481 25.596 34.5596L21.61 31.1552C19.0217 34.1469 16.4852 37.3966 14.104 40.801L14.104 40.8525ZM30.2031 22.3348L33.7232 26.2034C36.622 23.5727 39.6762 21.1484 42.8339 18.9304L39.8315 14.6491C36.4667 16.9703 33.2055 19.5494 30.1513 22.3348L30.2031 22.3348ZM50.4953 8.35618L52.8765 12.9985C56.3965 11.2447 60.0201 9.7489 63.592 8.56251L61.9872 3.61068C58.1048 4.84863 54.2741 6.44768 50.547 8.35618L50.4953 8.35618ZM74.0486 0.722119L74.8251 5.88028C77.7758 5.41604 80.7782 5.20971 83.6771 5.20971C84.5571 5.20971 85.4371 5.2097 86.2653 5.26129L86.5242 0.0515555C85.5924 0.0515555 84.6088 -1.91495e-05 83.6771 -1.91088e-05C80.5194 -1.89708e-05 77.2581 0.257885 74.0486 0.722119ZM97.602 6.96348C101.277 7.94354 104.901 9.28465 108.318 10.9868L110.647 6.34451C106.92 4.48757 102.934 2.99169 98.8962 1.96006L97.5503 7.01506L97.602 6.96348ZM118.101 17.0735C121.052 19.343 123.951 21.9221 126.694 24.8623L130.525 21.3031C127.626 18.2082 124.52 15.4228 121.311 12.9469L118.153 17.0735L118.101 17.0735ZM134.045 33.8374C136.219 36.8808 138.342 40.2336 140.309 43.7411L144.864 41.2136C142.793 37.5513 140.568 34.0438 138.29 30.8457L134.045 33.889L134.045 33.8374ZM145.589 54.2637C147.142 57.7197 148.643 61.382 149.989 65.199L154.907 63.4452C153.509 59.525 151.956 55.7596 150.351 52.1489L145.589 54.2637ZM153.664 76.4438C154.337 78.7134 154.907 80.9314 155.476 83.201C155.89 84.8 156.253 86.3474 156.615 87.9465L161.688 86.7601C161.326 85.1611 160.912 83.562 160.497 81.963C159.928 79.6418 159.307 77.3723 158.634 75.0511L153.613 76.4954L153.664 76.4438ZM159.307 99.5523L161.895 111.261L167.02 110.127L164.432 98.4175L159.307 99.5523ZM164.69 122.97C165.674 126.891 166.709 130.811 167.848 134.628L172.869 133.183C171.782 129.418 170.747 125.549 169.763 121.732L164.69 122.97ZM171.575 146.182C173.025 150.154 174.578 153.971 176.182 157.478L180.945 155.312C179.392 151.908 177.891 148.245 176.493 144.428L171.575 146.182ZM181.928 168.362C184.051 171.921 186.432 175.377 188.917 178.524L193.058 175.326C190.729 172.334 188.503 169.084 186.484 165.731L181.98 168.414L181.928 168.362ZM197.199 187.654C200.15 190.439 203.411 193.07 206.776 195.494L209.778 191.264C206.621 189.046 203.566 186.57 200.771 183.888L197.147 187.654L197.199 187.654ZM217.388 201.89C221.011 203.747 224.842 205.449 228.725 206.79L230.485 201.89C226.809 200.6 223.237 199.001 219.769 197.248L217.388 201.89ZM240.579 210.143C244.617 211.02 248.758 211.587 252.847 211.897L253.262 206.687C249.431 206.378 245.548 205.862 241.718 205.036L240.631 210.143L240.579 210.143ZM264.909 206.79L265.271 212C269.412 211.742 273.554 211.175 277.54 210.298L276.453 205.191C272.725 205.965 268.843 206.532 264.909 206.79ZM287.53 201.942L289.394 206.79C293.225 205.346 297.004 203.592 300.627 201.581L298.091 197.041C294.674 198.95 291.102 200.6 287.53 201.942ZM307.874 190.697L311.032 194.875C314.293 192.399 317.451 189.717 320.402 186.828L316.726 183.114C313.983 185.848 310.98 188.376 307.926 190.697L307.874 190.697ZM324.388 174.397L328.529 177.595C331.065 174.345 333.343 170.89 335.414 167.382L330.91 164.803C328.995 168.156 326.821 171.405 324.439 174.449L324.388 174.397ZM336.035 154.28L340.901 156.24C342.454 152.423 343.748 148.452 344.68 144.48L339.607 143.242C338.727 146.956 337.484 150.67 336.035 154.28Z" fill="#393939"/>
<path d="M357 166.453L352.289 168.775L341.004 145.666L318.745 158.562L316.105 154.022L343.282 138.342L357 166.453Z" fill="#393939"/>
</g>
<defs>
<clipPath id="clip0_19_463">
<rect width="212" height="365" fill="white" transform="matrix(-4.37114e-08 -1 -1 4.37114e-08 357 212)"/>
</clipPath>
</defs>
</svg>
