<svg width="120" height="17" viewBox="0 0 120 17" fill="none" xmlns="http://www.w3.org/2000/svg">
<g clip-path="url(#clip0_19_123)">
<g clip-path="url(#clip1_19_123)">
<path d="M336.545 0.185268C330.167 0.185268 326.86 3.44565 324.2 6.06335C321.917 8.31357 320.268 9.93853 316.746 9.93853C313.224 9.93853 311.575 8.31357 309.292 6.06335C306.634 3.4439 303.325 0.185268 296.949 0.185268C290.572 0.185268 287.263 3.44565 284.605 6.06335C282.322 8.31357 280.673 9.93853 277.151 9.93853C273.63 9.93853 271.98 8.31357 269.697 6.06335C267.039 3.4439 263.73 0.185268 257.354 0.185268C250.978 0.185268 247.669 3.44565 245.011 6.06335C242.727 8.31357 241.078 9.93853 237.556 9.93853C234.035 9.93853 232.385 8.31357 230.102 6.06335C227.444 3.4439 224.135 0.185268 217.759 0.185268C211.383 0.185268 208.074 3.44565 205.416 6.06335C203.133 8.31357 201.483 9.93853 197.963 9.93853C194.444 9.93853 192.792 8.31357 190.509 6.06335C187.851 3.4439 184.542 0.185268 178.166 0.185268C171.79 0.185268 168.481 3.44565 165.823 6.06335C163.54 8.31357 161.89 9.93853 158.369 9.93853C154.847 9.93853 153.198 8.31357 150.914 6.06335C148.257 3.4439 144.947 0.185268 138.571 0.185268C132.195 0.185268 128.886 3.44565 126.228 6.06335C123.945 8.31357 122.296 9.93853 118.774 9.93853C115.252 9.93853 113.603 8.31357 111.32 6.06335C108.662 3.4439 105.353 0.185268 98.9765 0.185268C92.6003 0.185268 89.2911 3.44565 86.6334 6.06335C84.3501 8.31357 82.7007 9.93853 79.1808 9.93853C75.661 9.93853 74.0099 8.31357 71.7283 6.06335C69.0705 3.4439 65.7614 0.185268 59.3852 0.185268C53.009 0.185268 49.6999 3.44565 47.0421 6.06335C44.7588 8.31357 43.1094 9.93853 39.5878 9.93853C36.0662 9.93853 34.4168 8.31357 32.1353 6.06335C29.4775 3.4439 26.1684 0.185268 19.7922 0.185268C13.416 0.185268 10.1068 3.44565 7.44906 6.06335C5.17097 8.31357 3.52163 9.93853 0 9.93853V16.9052C6.3762 16.9052 9.68534 13.6448 12.3431 11.0271C14.6264 8.77685 16.2758 7.15189 19.7956 7.15189C23.3155 7.15189 24.9666 8.77685 27.2482 11.0271C29.9077 13.6448 33.2151 16.9052 39.593 16.9052C45.971 16.9052 49.2784 13.6448 51.9361 11.0271C54.2195 8.77685 55.8688 7.15189 59.3904 7.15189C62.912 7.15189 64.5614 8.77685 66.843 11.0271C69.5007 13.6448 72.8081 16.9052 79.1861 16.9052C85.564 16.9052 88.8714 13.6448 91.5292 11.0271C93.8125 8.77685 95.4618 7.15189 98.9817 7.15189C102.502 7.15189 104.153 8.77685 106.436 11.0271C109.094 13.6465 112.403 16.9052 118.779 16.9052C125.155 16.9052 128.464 13.6448 131.122 11.0271C133.406 8.77685 135.055 7.15189 138.576 7.15189C142.098 7.15189 143.747 8.77685 146.031 11.0271C148.689 13.6465 151.998 16.9052 158.374 16.9052C164.75 16.9052 168.059 13.6448 170.717 11.0271C173 8.77685 174.65 7.15189 178.171 7.15189C181.693 7.15189 183.342 8.77685 185.626 11.0271C188.283 13.6465 191.592 16.9052 197.969 16.9052C204.345 16.9052 207.654 13.6448 210.312 11.0271C212.595 8.77685 214.244 7.15189 217.764 7.15189C221.284 7.15189 222.935 8.77685 225.219 11.0271C227.876 13.6465 231.185 16.9052 237.562 16.9052C243.938 16.9052 247.247 13.6448 249.905 11.0271C252.188 8.77685 253.837 7.15189 257.359 7.15189C260.881 7.15189 262.53 8.77685 264.813 11.0271C267.471 13.6465 270.78 16.9052 277.156 16.9052C283.533 16.9052 286.842 13.6448 289.5 11.0271C291.783 8.77685 293.432 7.15189 296.952 7.15189C300.472 7.15189 302.123 8.77685 304.406 11.0271C307.064 13.6465 310.373 16.9052 316.75 16.9052C323.126 16.9052 326.435 13.6448 329.093 11.0271C331.376 8.77685 333.025 7.15189 336.547 7.15189C340.069 7.15189 341.718 8.77685 344.001 11.0271C346.659 13.6465 349.968 16.9052 356.344 16.9052V9.93853C352.823 9.93853 351.173 8.31357 348.89 6.06335C346.232 3.4439 342.923 0.185268 336.547 0.185268H336.545Z" fill="#F96540"/>
</g>
</g>
<defs>
<clipPath id="clip0_19_123">
<rect width="120" height="16.7199" fill="white" transform="matrix(1 0 0 -1 0 16.9052)"/>
</clipPath>
<clipPath id="clip1_19_123">
<rect width="356.343" height="16.7199" fill="white" transform="matrix(1 0 0 -1 0 16.9052)"/>
</clipPath>
</defs>
</svg>
