<svg width="120" height="17" viewBox="0 0 120 17" fill="none" xmlns="http://www.w3.org/2000/svg">
<g clip-path="url(#clip0_19_409)">
<path d="M336.545 -0.174717C330.167 -0.174717 326.86 3.08566 324.2 5.70337C321.917 7.95358 320.268 9.57855 316.746 9.57855C313.224 9.57855 311.575 7.95358 309.292 5.70337C306.634 3.08392 303.325 -0.174717 296.949 -0.174717C290.572 -0.174717 287.263 3.08566 284.605 5.70337C282.322 7.95358 280.673 9.57855 277.151 9.57855C273.63 9.57855 271.98 7.95358 269.697 5.70337C267.039 3.08392 263.73 -0.174717 257.354 -0.174717C250.978 -0.174717 247.669 3.08566 245.011 5.70337C242.727 7.95358 241.078 9.57855 237.556 9.57855C234.035 9.57855 232.385 7.95358 230.102 5.70337C227.444 3.08392 224.135 -0.174717 217.759 -0.174717C211.383 -0.174717 208.074 3.08566 205.416 5.70337C203.133 7.95358 201.483 9.57855 197.963 9.57855C194.444 9.57855 192.792 7.95358 190.509 5.70337C187.851 3.08392 184.542 -0.174717 178.166 -0.174717C171.79 -0.174717 168.481 3.08566 165.823 5.70337C163.54 7.95358 161.89 9.57855 158.369 9.57855C154.847 9.57855 153.198 7.95358 150.914 5.70337C148.257 3.08392 144.947 -0.174717 138.571 -0.174717C132.195 -0.174717 128.886 3.08566 126.228 5.70337C123.945 7.95358 122.296 9.57855 118.774 9.57855C115.252 9.57855 113.603 7.95358 111.32 5.70337C108.662 3.08392 105.353 -0.174717 98.9765 -0.174717C92.6003 -0.174717 89.2911 3.08566 86.6334 5.70337C84.3501 7.95358 82.7007 9.57855 79.1808 9.57855C75.661 9.57855 74.0099 7.95358 71.7283 5.70337C69.0705 3.08392 65.7614 -0.174717 59.3852 -0.174717C53.009 -0.174717 49.6999 3.08566 47.0421 5.70337C44.7588 7.95358 43.1094 9.57855 39.5878 9.57855C36.0662 9.57855 34.4168 7.95358 32.1353 5.70337C29.4775 3.08392 26.1684 -0.174717 19.7922 -0.174717C13.416 -0.174717 10.1068 3.08566 7.44906 5.70337C5.17097 7.95358 3.52163 9.57855 0 9.57855V16.5452C6.3762 16.5452 9.68534 13.2848 12.3431 10.6671C14.6264 8.41686 16.2758 6.7919 19.7956 6.7919C23.3155 6.7919 24.9666 8.41686 27.2482 10.6671C29.9077 13.2848 33.2151 16.5452 39.593 16.5452C45.971 16.5452 49.2784 13.2848 51.9361 10.6671C54.2195 8.41686 55.8688 6.7919 59.3904 6.7919C62.912 6.7919 64.5614 8.41686 66.843 10.6671C69.5007 13.2848 72.8081 16.5452 79.1861 16.5452C85.564 16.5452 88.8714 13.2848 91.5292 10.6671C93.8125 8.41686 95.4618 6.7919 98.9817 6.7919C102.502 6.7919 104.153 8.41686 106.436 10.6671C109.094 13.2865 112.403 16.5452 118.779 16.5452C125.155 16.5452 128.464 13.2848 131.122 10.6671C133.406 8.41686 135.055 6.7919 138.576 6.7919C142.098 6.7919 143.747 8.41686 146.031 10.6671C148.689 13.2865 151.998 16.5452 158.374 16.5452C164.75 16.5452 168.059 13.2848 170.717 10.6671C173 8.41686 174.65 6.7919 178.171 6.7919C181.693 6.7919 183.342 8.41686 185.626 10.6671C188.283 13.2865 191.592 16.5452 197.969 16.5452C204.345 16.5452 207.654 13.2848 210.312 10.6671C212.595 8.41686 214.244 6.7919 217.764 6.7919C221.284 6.7919 222.935 8.41686 225.219 10.6671C227.876 13.2865 231.185 16.5452 237.562 16.5452C243.938 16.5452 247.247 13.2848 249.905 10.6671C252.188 8.41686 253.837 6.7919 257.359 6.7919C260.881 6.7919 262.53 8.41686 264.813 10.6671C267.471 13.2865 270.78 16.5452 277.156 16.5452C283.533 16.5452 286.842 13.2848 289.5 10.6671C291.783 8.41686 293.432 6.7919 296.952 6.7919C300.472 6.7919 302.123 8.41686 304.406 10.6671C307.064 13.2865 310.373 16.5452 316.75 16.5452C323.126 16.5452 326.435 13.2848 329.093 10.6671C331.376 8.41686 333.025 6.7919 336.547 6.7919C340.069 6.7919 341.718 8.41686 344.001 10.6671C346.659 13.2865 349.968 16.5452 356.344 16.5452V9.57855C352.823 9.57855 351.173 7.95358 348.89 5.70337C346.232 3.08392 342.923 -0.174717 336.547 -0.174717H336.545Z" fill="#FFC874"/>
</g>
<defs>
<clipPath id="clip0_19_409">
<rect width="356.343" height="16.7199" fill="white" transform="matrix(1 0 0 -1 0 16.5452)"/>
</clipPath>
</defs>
</svg>
