<svg width="134" height="40" viewBox="0 0 134 40" fill="none" xmlns="http://www.w3.org/2000/svg">
<path d="M18.1281 5.04142C18.1518 5.06904 18.3298 5.28996 18.6619 5.70419C19.0178 6.11841 19.433 6.60168 19.9075 7.15398C20.382 7.7339 20.8327 8.2862 21.2598 8.81088C21.7106 9.33557 22.0071 9.69457 22.1495 9.88787C22.2918 10.0536 22.4104 10.2054 22.5053 10.3435C22.624 10.4816 22.6833 10.5644 22.6833 10.5921C22.4697 10.8406 22.2444 11.1029 22.0071 11.3791C21.7936 11.6 21.5445 11.8762 21.2598 12.2075C20.9751 12.5113 20.6667 12.8427 20.3345 13.2017C19.0059 14.6377 17.8909 15.8527 16.9893 16.8469C16.0878 17.8134 15.3642 18.6004 14.8185 19.208C14.2966 19.7879 13.917 20.2159 13.6797 20.4921C13.4662 20.7406 13.3594 20.8649 13.3594 20.8649C13.3594 20.8925 13.4187 20.9477 13.5374 21.0306C13.6797 21.1134 13.8458 21.2239 14.0356 21.3619C15.1507 22.0523 16.2776 22.7703 17.4164 23.5159C18.5552 24.2615 19.5991 24.9519 20.548 25.5871C21.497 26.1946 22.28 26.7055 22.8968 27.1197C23.5374 27.5339 23.8814 27.7687 23.9288 27.8239C23.9763 27.8791 24 27.9343 24 27.9896C24 28.0448 23.9288 28.2105 23.7865 28.4866C23.6679 28.7352 23.5136 29.0389 23.3238 29.3979C23.134 29.7569 22.8968 30.2126 22.6121 30.7649C22.3274 31.2896 22.0783 31.759 21.8648 32.1733C21.6512 32.5875 21.4614 32.9603 21.2954 33.2917C21.1293 33.5954 21.0344 33.7749 21.0107 33.8302C20.987 33.8578 20.9514 33.8716 20.9039 33.8716C20.8565 33.8716 20.726 33.8164 20.5125 33.7059C20.3227 33.5678 20.0261 33.3745 19.6228 33.126C19.2432 32.8498 18.6975 32.477 17.9858 32.0076C16.9656 31.3448 15.9573 30.682 14.9609 30.0193C13.9644 29.3565 12.968 28.68 11.9715 27.9896L11.2242 27.4925L11.1886 29.0251V32.1733C11.2123 32.9189 11.2123 33.4159 11.1886 33.6645C11.1649 33.913 11.1293 34.0235 11.0819 33.9959C11.0581 33.9959 11.0344 33.9959 11.0107 33.9959C10.987 33.9682 10.9514 33.9544 10.9039 33.9544C10.8565 33.9544 10.6074 33.8992 10.1566 33.7887C9.72954 33.6507 9.23132 33.4988 8.66192 33.3331C7.54686 33.0293 6.65718 32.7946 5.99288 32.6289C5.32859 32.4356 4.94899 32.339 4.85409 32.339C4.83037 32.339 4.80664 32.3113 4.78292 32.2561C4.75919 32.1733 4.73547 31.98 4.71174 31.6762C4.68802 31.3448 4.66429 30.8477 4.64057 30.185C4.64057 29.5222 4.61684 28.6109 4.56939 27.4511C4.49822 24.0268 4.41518 20.6301 4.32028 17.2611C4.24911 13.8644 4.15421 10.454 4.03559 7.02971L4 5L4.53381 5.04142C4.65243 5.04142 4.98458 5.08285 5.53025 5.16569C6.09964 5.24854 6.71649 5.34519 7.38078 5.45565C8.04508 5.53849 8.67378 5.63515 9.2669 5.74561C9.86002 5.82845 10.2396 5.88368 10.4057 5.9113L10.6904 5.95272L10.726 6.61548C10.726 6.78117 10.7378 7.23682 10.7616 7.98243C10.7853 8.72804 10.7972 9.52888 10.7972 10.3849C10.8209 11.2686 10.8327 12.0142 10.8327 12.6218C10.8565 13.2293 10.8802 13.5331 10.9039 13.5331C10.9039 13.5055 11.2005 13.1465 11.7936 12.4561C12.3867 11.7381 13.0985 10.8958 13.9288 9.9293C14.9727 8.68662 15.7675 7.7339 16.3132 7.07113C16.8826 6.38076 17.2977 5.88368 17.5587 5.57992C17.8197 5.27615 17.9739 5.11046 18.0214 5.08285C18.0688 5.05523 18.1044 5.04142 18.1281 5.04142Z" fill="#FE3448"/>
<path d="M26.7931 31.2143C26.954 31.2381 27.3218 31.2976 27.8966 31.3929C28.4713 31.4643 29.0805 31.5476 29.7241 31.6429C30.3678 31.7143 30.9655 31.7857 31.5172 31.8571C32.046 31.9286 32.3678 31.9643 32.4828 31.9643L33 32L32.9655 30.2143C32.9655 29.9762 32.9655 29.6905 32.9655 29.3571C32.9425 29 32.931 28.631 32.931 28.25C32.908 27.869 32.8966 27.4881 32.8966 27.1071C32.8736 26.7024 32.8506 26.3333 32.8276 26C32.8046 25.3571 32.7816 24.5595 32.7586 23.6071C32.7356 22.6548 32.7126 21.5952 32.6897 20.4286C32.6437 19.2619 32.5977 18.0238 32.5517 16.7143C32.5057 15.381 32.4598 14.0238 32.4138 12.6429C32.3908 11.619 32.3793 10.8214 32.3793 10.25C32.3563 9.67857 32.3333 9.2619 32.3103 9C32.2874 8.71429 32.2644 8.54762 32.2414 8.5C32.2184 8.42857 32.1954 8.39286 32.1724 8.39286C32.0805 8.39286 31.7241 8.32143 31.1034 8.17857C30.4598 8.01191 29.5862 7.79762 28.4828 7.53571C27.8851 7.39286 27.4253 7.28571 27.1034 7.21429C26.7816 7.14286 26.5517 7.09524 26.4138 7.07143C26.2529 7.02381 26.1609 7 26.1379 7C26.092 7 26.0575 7.0119 26.0345 7.03571C25.9885 7.10714 25.9885 7.59524 26.0345 8.5C26.0575 8.88095 26.0805 9.52381 26.1034 10.4286C26.1034 11.3095 26.1149 12.2024 26.1379 13.1071C26.1379 13.5595 26.1494 14.0595 26.1724 14.6071C26.1724 15.131 26.1839 15.6667 26.2069 16.2143C26.2069 16.7381 26.2184 17.25 26.2414 17.75C26.2414 18.25 26.2414 18.6905 26.2414 19.0714C26.2414 19.4286 26.2529 19.881 26.2759 20.4286C26.2759 20.9762 26.2874 21.5595 26.3103 22.1786C26.3333 22.7976 26.3563 23.4286 26.3793 24.0714C26.3793 24.7143 26.3793 25.3214 26.3793 25.8929C26.3793 26.4643 26.3908 27.0119 26.4138 27.5357C26.4138 28.0595 26.4253 28.5357 26.4483 28.9643C26.4483 29.3929 26.4598 29.75 26.4828 30.0357C26.4828 30.3214 26.4828 30.5 26.4828 30.5714L26.5172 31.1786L26.7931 31.2143Z" fill="#FE3448"/>
<path d="M35.1633 32.1564C34.9716 32.1564 34.8518 32.1564 34.8039 32.1564C34.756 32.1325 34.744 32.0965 34.768 32.0486C34.768 32.0246 34.768 31.7132 34.768 31.1142C34.7919 30.4913 34.8159 29.6767 34.8398 28.6705C34.8638 27.6402 34.8758 26.4783 34.8758 25.1845C34.8997 23.8668 34.9117 22.5011 34.9117 21.0876C34.9357 19.674 34.9476 18.2605 34.9476 16.8469C34.9716 15.4094 34.9836 14.0797 34.9836 12.8579C35.0075 11.636 35.0195 10.5578 35.0195 9.62346C35.0195 8.68907 35.0195 7.99428 35.0195 7.53907C35.0674 7.27552 35.1154 7.11979 35.1633 7.07188C35.2352 7.02396 35.3669 7 35.5586 7C35.7982 7 36.1336 7.03594 36.5648 7.10781C37.0201 7.15573 37.4992 7.22761 38.0024 7.32344C38.5055 7.41927 39.0086 7.52709 39.5117 7.64688C40.0388 7.74271 40.494 7.83855 40.8774 7.93438C42.1472 8.2698 43.5128 8.73699 44.9743 9.33595C46.4357 9.91096 47.8134 10.6177 49.1071 11.4563C50.4248 12.2948 51.5509 13.2891 52.4853 14.4391C53.4436 15.5652 54.0426 16.8589 54.2822 18.3204C54.354 18.7756 54.378 19.2787 54.354 19.8298C54.3301 20.3808 54.2582 20.8839 54.1384 21.3392C53.6832 23.0642 52.6051 24.6814 50.904 26.1908C49.203 27.7001 46.9748 28.9939 44.2196 30.072C43.6446 30.2877 42.9618 30.5272 42.1711 30.7908C41.4045 31.0304 40.6019 31.258 39.7633 31.4736C38.9487 31.6653 38.1341 31.833 37.3195 31.9767C36.5049 32.0965 35.7862 32.1564 35.1633 32.1564ZM41.3805 14.0438C41.3565 14.0438 41.3446 14.2115 41.3446 14.5469C41.3685 14.6907 41.3805 14.9902 41.3805 15.4454C41.4045 15.8766 41.4284 16.3318 41.4524 16.811C41.4763 17.2902 41.4883 17.8053 41.4883 18.3563C41.5123 18.8834 41.5362 19.3027 41.5602 19.6141C41.6081 20.261 41.644 20.9079 41.668 21.5548C41.692 22.1777 41.7039 22.8126 41.7039 23.4595C41.7279 23.5314 41.7399 23.6392 41.7399 23.7829C41.7399 23.9267 41.7399 24.0584 41.7399 24.1782C41.7399 24.5137 41.7638 24.6574 41.8118 24.6095C41.8597 24.6095 41.9675 24.5855 42.1352 24.5376C42.3029 24.4657 42.5185 24.3939 42.7821 24.322C45.6331 23.4834 47.3821 22.4173 48.029 21.1235C48.1488 20.8121 48.2326 20.5485 48.2805 20.3329C48.4722 19.3027 48.029 18.2605 46.9509 17.2063C45.8727 16.1521 44.2795 15.2058 42.1711 14.3672C41.9795 14.2714 41.7998 14.1995 41.6321 14.1516C41.4883 14.0797 41.4045 14.0438 41.3805 14.0438Z" fill="#FE3448"/>
<path d="M128.902 10.486C130.124 11.4683 130.95 12.6422 131.381 14.0079C131.453 14.2474 131.501 14.4511 131.525 14.6188C131.549 14.7865 131.549 15.1099 131.525 15.5891C131.525 15.8287 131.525 16.0204 131.525 16.1641C131.525 16.3079 131.513 16.4396 131.489 16.5594C131.489 16.6553 131.477 16.7631 131.453 16.8829C131.429 16.9787 131.393 17.1105 131.345 17.2782C131.226 17.6855 131.07 18.1048 130.878 18.536C130.687 18.9433 130.495 19.3027 130.303 19.6141C130.231 19.71 130.112 19.8537 129.944 20.0454C129.8 20.2131 129.632 20.3928 129.441 20.5845C129.273 20.7522 129.105 20.9199 128.938 21.0876C128.77 21.2553 128.626 21.3871 128.506 21.4829C128.41 21.5548 128.279 21.6506 128.111 21.7704C127.943 21.8662 127.752 21.9741 127.536 22.0938C127.344 22.2136 127.153 22.3334 126.961 22.4532C126.793 22.5491 126.65 22.6329 126.53 22.7048C126.242 22.8485 125.823 23.0163 125.272 23.2079C124.745 23.3996 124.29 23.5433 123.906 23.6392C123.379 23.759 123.08 23.8548 123.008 23.9267C122.984 23.9506 122.96 23.9985 122.936 24.0704C122.936 24.1423 122.936 24.298 122.936 24.5376C122.936 24.7532 122.936 25.1006 122.936 25.5798C122.936 26.059 122.948 26.7178 122.972 27.5564C122.996 28.5387 123.008 29.3772 123.008 30.072C123.032 30.7668 123.032 31.1142 123.008 31.1142C123.008 31.1142 122.852 31.1502 122.541 31.222C122.253 31.2699 121.882 31.3418 121.427 31.4377C120.971 31.5095 120.48 31.5934 119.953 31.6892C119.426 31.7611 118.935 31.845 118.48 31.9408C118.024 32.0127 117.641 32.0726 117.33 32.1205C117.018 32.1684 116.839 32.1924 116.791 32.1924C116.743 32.1924 116.719 32.0246 116.719 31.6892C116.719 31.6173 116.707 31.4616 116.683 31.222C116.683 30.9824 116.671 30.683 116.647 30.3236C116.623 29.9642 116.599 29.5689 116.575 29.1376C116.575 28.6824 116.575 28.2152 116.575 27.7361C116.479 24.7173 116.395 21.8782 116.323 19.2188C116.252 16.5594 116.18 14.3193 116.108 12.4985C116.108 12.0193 116.096 11.5521 116.072 11.0969C116.072 10.6177 116.06 10.1745 116.036 9.76721C116.036 9.35991 116.024 9.00053 116 8.68907C116 8.37761 116 8.15001 116 8.00626V7H116.216C116.383 7 116.755 7.03594 117.33 7.10781C117.905 7.17969 118.803 7.31146 120.025 7.50313C120.6 7.575 121.151 7.64688 121.678 7.71875C122.205 7.79063 122.541 7.83855 122.684 7.86251C123.188 7.93438 123.715 8.05417 124.266 8.22188C124.841 8.36563 125.404 8.5573 125.955 8.79689C126.506 9.01251 127.033 9.26408 127.536 9.55158C128.063 9.83908 128.518 10.1505 128.902 10.486ZM126.745 16.7032C126.841 16.5115 126.889 16.3917 126.889 16.3438C126.913 16.2719 126.913 16.1521 126.889 15.9844C126.865 15.8886 126.829 15.7808 126.781 15.661C126.757 15.5412 126.721 15.4454 126.674 15.3735C126.53 15.062 126.218 14.7146 125.739 14.3313C125.284 13.924 124.841 13.6245 124.409 13.4329C124.266 13.361 124.086 13.2891 123.87 13.2172C123.679 13.1454 123.499 13.0855 123.331 13.0375C123.164 12.9657 123.008 12.9177 122.864 12.8938C122.744 12.8459 122.684 12.8339 122.684 12.8579C122.684 12.8579 122.684 13.0016 122.684 13.2891C122.684 13.5766 122.684 13.936 122.684 14.3672C122.684 14.7985 122.684 15.2657 122.684 15.7688C122.708 16.2719 122.72 16.7511 122.72 17.2063C122.744 17.6376 122.756 18.0089 122.756 18.3204C122.78 18.6318 122.792 18.8115 122.792 18.8595C122.84 19.123 122.924 19.2548 123.044 19.2548C123.068 19.2548 123.14 19.2308 123.259 19.1829C123.403 19.135 123.559 19.0871 123.727 19.0391C124.397 18.7756 125.008 18.4282 125.559 17.9969C126.134 17.5657 126.53 17.1344 126.745 16.7032Z" fill="#FE3448"/>
<path d="M110.866 10.45C112.088 11.4323 112.926 12.6183 113.381 14.0079C113.453 14.2714 113.489 14.475 113.489 14.6188C113.513 14.7626 113.525 15.074 113.525 15.5532C113.525 15.7928 113.525 15.9844 113.525 16.1282C113.525 16.2719 113.513 16.4037 113.489 16.5235C113.489 16.6433 113.477 16.7631 113.453 16.8829C113.429 16.9787 113.393 17.1105 113.345 17.2782C113.226 17.6615 113.07 18.0688 112.878 18.5001C112.687 18.9313 112.495 19.2907 112.303 19.5782C112.231 19.674 112.112 19.8178 111.944 20.0095C111.8 20.1772 111.632 20.3569 111.441 20.5485C111.273 20.7162 111.105 20.8839 110.938 21.0517C110.77 21.2194 110.626 21.3511 110.506 21.447C110.41 21.5188 110.267 21.6267 110.075 21.7704C109.883 21.8902 109.68 22.01 109.464 22.1298C109.249 22.2496 109.033 22.3694 108.817 22.4892C108.626 22.609 108.47 22.6928 108.35 22.7407L107.991 22.9204L111.764 24.7532C112.818 25.2803 113.717 25.7355 114.459 26.1189C115.202 26.4783 115.586 26.6699 115.609 26.6939C115.657 26.7418 115.633 26.8855 115.538 27.1251C115.442 27.3408 115.226 27.8439 114.891 28.6345C114.364 29.8804 113.992 30.7548 113.777 31.258C113.561 31.7611 113.429 32.0366 113.381 32.0845C113.357 32.1085 113.286 32.1085 113.166 32.0845C113.07 32.0366 112.818 31.9168 112.411 31.7252C112.004 31.5335 111.393 31.246 110.578 30.8627C109.788 30.4554 108.685 29.9163 107.272 29.2455C106.649 28.934 106.122 28.6824 105.691 28.4908C105.259 28.2751 105.032 28.1673 105.008 28.1673V29.6408L105.044 31.1142L104.469 31.222C104.181 31.27 103.726 31.3418 103.103 31.4377C102.504 31.5335 101.881 31.6413 101.234 31.7611C100.611 31.8569 100.048 31.9528 99.5453 32.0486C99.0662 32.1205 98.8146 32.1564 98.7906 32.1564C98.7667 32.1564 98.7307 31.9887 98.6828 31.6533C98.6828 31.5814 98.6708 31.4257 98.6469 31.1861C98.6469 30.9465 98.6349 30.647 98.6109 30.2877C98.6109 29.9283 98.599 29.521 98.575 29.0658C98.575 28.6106 98.575 28.1434 98.575 27.6642C98.4792 24.6694 98.3953 21.8543 98.3234 19.2188C98.2516 16.5594 98.1797 14.3193 98.1078 12.4985C98.0839 12.0193 98.0599 11.5401 98.0359 11.061C98.0359 10.5818 98.024 10.1386 98 9.73127C98 9.32397 98 8.97658 98 8.68907C98 8.37761 98 8.15001 98 8.00626V7H98.2156C98.3833 7 98.7547 7.03594 99.3297 7.10781C99.9047 7.17969 100.803 7.29948 102.025 7.46719C102.6 7.56303 103.151 7.64688 103.678 7.71876C104.205 7.76667 104.541 7.80261 104.684 7.82657C105.188 7.89844 105.715 8.01824 106.266 8.18594C106.841 8.3297 107.404 8.52137 107.955 8.76095C108.506 9.00053 109.033 9.26408 109.536 9.55158C110.039 9.83908 110.482 10.1386 110.866 10.45ZM108.745 16.7032C108.841 16.5115 108.889 16.3797 108.889 16.3079C108.913 16.236 108.913 16.1162 108.889 15.9485C108.841 15.8527 108.805 15.7568 108.781 15.661C108.757 15.5412 108.721 15.4334 108.674 15.3376C108.506 15.0501 108.194 14.7146 107.739 14.3313C107.284 13.924 106.841 13.6245 106.409 13.4329C106.098 13.2891 105.739 13.1454 105.331 13.0016C104.924 12.8579 104.708 12.798 104.684 12.8219C104.684 12.8219 104.684 12.9776 104.684 13.2891C104.684 13.5766 104.684 13.936 104.684 14.3672C104.684 14.7985 104.684 15.2657 104.684 15.7688C104.708 16.2719 104.72 16.7511 104.72 17.2063C104.744 17.6376 104.756 18.0089 104.756 18.3204C104.78 18.6318 104.792 18.8115 104.792 18.8595C104.84 19.099 104.924 19.2188 105.044 19.2188C105.068 19.2188 105.14 19.1949 105.259 19.147C105.403 19.099 105.559 19.0511 105.727 19.0032C106.397 18.7397 107.008 18.4042 107.559 17.9969C108.134 17.5657 108.53 17.1344 108.745 16.7032Z" fill="#FE3448"/>
<path d="M91.8894 8.75531C91.0727 8.20782 90.2209 7.79125 89.3341 7.5056C88.424 7.21995 87.3506 7.05332 86.1138 7.00571C84.947 6.95811 83.7218 7.20805 82.4383 7.75554C81.1315 8.27923 79.9997 9.00526 79.043 9.93362C76.8727 12.0522 75.5426 14.7777 75.0525 18.1103C75.0292 18.3246 75.0175 18.5983 75.0175 18.9316C74.9942 19.241 74.9942 19.5743 75.0175 19.9313C75.0175 20.2646 75.0292 20.5978 75.0525 20.9311C75.0525 21.2644 75.0758 21.55 75.1225 21.788C75.3092 23.0259 75.6476 24.2042 76.1376 25.323C76.6044 26.4179 77.2111 27.4058 77.9578 28.2866C78.7046 29.1673 79.5797 29.9171 80.5831 30.536C81.5632 31.155 82.6717 31.5953 83.9085 31.8572C84.0719 31.881 84.3052 31.9048 84.6086 31.9286C84.8886 31.9524 85.192 31.9762 85.5187 32C85.8221 32 86.1254 32 86.4288 32C86.7322 32 86.9655 31.9881 87.1289 31.9643C88.459 31.7739 89.6842 31.3454 90.8043 30.6789C91.9244 30.0124 92.9162 29.1792 93.7796 28.1794C94.6197 27.1797 95.3081 26.0609 95.8449 24.8231C96.3816 23.5853 96.7316 22.3117 96.895 21.0025C96.965 20.5264 97 19.9313 97 19.2172C97 18.4793 96.965 17.8723 96.895 17.3962C96.6616 15.6109 96.1016 13.9565 95.2148 12.433C94.328 10.8858 93.2196 9.65987 91.8894 8.75531ZM82.0183 18.1817C82.2983 16.9201 82.8117 15.7894 83.5585 14.7896C84.3052 13.7661 85.1453 13.0758 86.0788 12.7187C86.3121 12.6235 86.4871 12.5759 86.6038 12.5759C86.7205 12.5521 86.9655 12.5402 87.3389 12.5402C87.7123 12.5402 88.0273 12.5759 88.284 12.6473C88.5174 12.6949 88.7974 12.7782 89.1241 12.8972C89.2408 12.921 89.4508 13.0639 89.7542 13.3257C90.0342 13.5875 90.2676 13.8494 90.4543 14.1112C90.8276 14.6587 91.1193 15.2895 91.3294 16.0037C91.5394 16.694 91.6561 17.4319 91.6794 18.2174C91.7027 18.9792 91.6444 19.7647 91.5044 20.574C91.341 21.3596 91.0843 22.1213 90.7343 22.8592C90.5243 23.3353 90.2559 23.7995 89.9292 24.2518C89.6025 24.704 89.2408 25.1087 88.8441 25.4658C88.4474 25.8228 88.0156 26.1085 87.5489 26.3227C87.0589 26.537 86.5338 26.6441 85.9738 26.6441C85.4837 26.6441 85.0403 26.5489 84.6436 26.3584C84.2235 26.1442 83.8502 25.8704 83.5235 25.5372C83.1968 25.1801 82.9167 24.7874 82.6834 24.3589C82.45 23.9304 82.2633 23.5019 82.1233 23.0735C81.9133 22.407 81.7966 21.6333 81.7733 20.7526C81.7499 19.848 81.8316 18.9911 82.0183 18.1817Z" fill="#FE3448"/>
<path d="M57.5199 25.8601C56.7292 24.8299 56.1542 23.7518 55.7949 22.6257C55.4594 21.4997 55.3516 20.3616 55.4714 19.2116C55.5912 18.0616 55.9386 16.9356 56.5136 15.8335C57.0886 14.7314 57.8792 13.6772 58.8855 12.671C60.2032 11.3772 61.7725 10.2751 63.5933 9.3647C65.4142 8.45428 67.4147 7.78344 69.5949 7.35219C70.2658 7.2324 70.8887 7.13656 71.4637 7.06469C72.0387 6.99281 72.3502 6.98083 72.3981 7.02875C72.4221 7.05271 72.47 7.24438 72.5418 7.60375C72.6137 7.96313 72.7096 8.40636 72.8293 8.93345C72.9491 9.43658 73.0689 9.98762 73.1887 10.5866C73.3325 11.1855 73.4523 11.7486 73.5481 12.2757C73.6679 12.7788 73.7637 13.21 73.8356 13.5694C73.9075 13.9048 73.9434 14.0725 73.9434 14.0725C73.9195 14.0965 73.8596 14.1085 73.7637 14.1085C73.6439 14.1085 73.2726 14.1804 72.6497 14.3241C72.0267 14.4439 71.4398 14.5757 70.8887 14.7194C69.6429 15.0069 68.4689 15.3783 67.3668 15.8335C66.2647 16.2887 65.3423 16.7559 64.5996 17.2351C64.36 17.3788 64.1085 17.5585 63.8449 17.7741C63.5814 17.9658 63.3418 18.1934 63.1262 18.457C62.9105 18.6965 62.7308 18.9721 62.5871 19.2835C62.4673 19.571 62.4074 19.8585 62.4074 20.146C62.4074 20.721 62.5991 21.2361 62.9824 21.6913C63.3897 22.1226 63.9048 22.494 64.5277 22.8054C65.1746 23.1169 65.8934 23.3804 66.684 23.596C67.4746 23.7877 68.2653 23.9554 69.0559 24.0992C69.8465 24.219 70.5892 24.3148 71.284 24.3867C71.9788 24.4346 72.5538 24.4705 73.009 24.4945L73.6559 24.5304L73.62 25.0336C73.62 25.1294 73.596 25.369 73.5481 25.7523C73.5241 26.1117 73.4882 26.5549 73.4403 27.082C73.3924 27.5851 73.3325 28.1362 73.2606 28.7351C73.2127 29.3101 73.1528 29.8492 73.0809 30.3523C73.033 30.8315 72.9851 31.2388 72.9372 31.5742C72.9132 31.8857 72.8892 32.0534 72.8653 32.0774C72.8174 32.1253 72.6976 32.1492 72.5059 32.1492C72.3382 32.1492 71.9549 32.1253 71.3559 32.0774C70.1101 32.0055 68.8403 31.8258 67.5465 31.5383C66.2527 31.2508 64.9949 30.8555 63.773 30.3523C62.5512 29.8492 61.4011 29.2263 60.323 28.4836C59.2449 27.7409 58.3105 26.8664 57.5199 25.8601Z" fill="#FE3448"/>
</svg>
