<svg width="134" height="40" viewBox="0 0 134 40" fill="none" xmlns="http://www.w3.org/2000/svg">
<path d="M38.3024 5.85367C38.3362 5.85367 38.6745 5.88749 39.3171 5.95513C39.9597 6.02277 40.7206 6.12424 41.6 6.25952C42.6146 6.39481 43.4432 6.51318 44.0858 6.61464C44.7284 6.68228 45.3203 6.76684 45.8614 6.8683C46.4026 6.93594 46.9437 7.00359 47.4849 7.07123C48.0598 7.13887 48.7532 7.22342 49.5649 7.32489C50.2751 7.42635 50.9515 7.52781 51.5941 7.62928C52.2706 7.69692 52.7271 7.74765 52.9639 7.78147C53.1668 7.84911 53.4543 7.89985 53.8263 7.93367C54.2322 7.96749 54.6042 8.01822 54.9424 8.08586C56.6335 8.32261 57.8172 8.49172 58.4936 8.59318C59.2039 8.66082 59.6943 8.71155 59.9649 8.74537C60.134 8.7792 60.2354 8.81302 60.2693 8.84684C60.3031 8.88066 60.3538 8.98212 60.4215 9.15123C60.4553 9.25269 60.5398 9.72619 60.6751 10.5717C60.8442 11.4172 61.0471 12.3811 61.2839 13.4634L62.0956 17.4205L52 27.5161C51.6618 27.8543 51.4419 28.0742 51.3405 28.1756C51.239 28.2771 51.2221 28.3447 51.2897 28.3785C51.3574 28.4124 51.5434 28.4293 51.8478 28.4293C52.186 28.4293 52.5749 28.4462 53.0146 28.48C54.1984 28.5138 55.3483 28.5646 56.4644 28.6322C57.5805 28.666 58.5613 28.6998 59.4068 28.7337C60.2523 28.7675 60.9288 28.8013 61.4361 28.8351C61.9772 28.869 62.2478 28.8859 62.2478 28.8859C62.2478 28.8859 62.2647 29.0888 62.2985 29.4946C62.3323 29.8667 62.3662 30.3402 62.4 30.9151C62.4676 31.4563 62.5184 32.0651 62.5522 32.7415C62.586 33.4179 62.6198 34.0605 62.6536 34.6693C62.7213 35.2781 62.7551 35.8023 62.7551 36.242C62.7889 36.6816 62.8058 36.9522 62.8058 37.0537C62.8058 37.189 62.7551 37.2566 62.6536 37.2566C62.5522 37.2904 62.0449 37.2735 61.1317 37.2059C60.8273 37.172 60.4384 37.1551 59.9649 37.1551C59.4914 37.1213 59.0686 37.0875 58.6966 37.0537C57.5805 36.986 56.4644 36.9184 55.3483 36.8507C54.266 36.7831 53.2345 36.7324 52.2536 36.6985C51.3067 36.6309 50.4442 36.5802 49.6663 36.5464C48.9223 36.5125 48.3304 36.4787 47.8907 36.4449C47.0452 36.4111 46.3011 36.3772 45.6585 36.3434C45.0497 36.3096 44.5086 36.2758 44.0351 36.242C43.5616 36.2081 43.1389 36.1912 42.7668 36.1912C42.3948 36.1574 42.0228 36.1405 41.6507 36.1405L40.1288 36.039L39.7736 34.9229C39.1987 33.2657 38.759 31.9805 38.4546 31.0673C38.1841 30.1203 38.0488 29.613 38.0488 29.5454C38.0488 29.4777 38.1333 29.3424 38.3024 29.1395C38.4715 28.9366 38.7928 28.5815 39.2663 28.0742C39.7736 27.5668 40.4839 26.8735 41.3971 25.9942C42.3441 25.081 43.5785 23.8803 45.1005 22.3922C45.9798 21.5129 46.8084 20.7011 47.5863 19.9571C48.398 19.1792 49.0914 18.5028 49.6663 17.9278C50.2413 17.3529 50.6979 16.8963 51.0361 16.5581C51.3743 16.2198 51.5434 16.0507 51.5434 16.0507C51.5434 16.0169 51.4588 15.9831 51.2897 15.9493C51.1206 15.9155 50.9177 15.8816 50.681 15.8478C50.4104 15.7802 50.0722 15.7294 49.6663 15.6956C49.2605 15.628 48.8715 15.5603 48.4995 15.4927C48.1275 15.425 47.7893 15.3743 47.4849 15.3405C47.1805 15.3067 46.9945 15.2729 46.9268 15.239C46.7239 15.2052 46.1151 15.1207 45.1005 14.9854C44.0858 14.8501 42.7499 14.6641 41.0927 14.4273L38.201 13.9707L38.2517 9.96293C38.2517 8.84684 38.2517 7.89985 38.2517 7.12196C38.2855 6.31025 38.3024 5.88749 38.3024 5.85367Z" fill="#FE3448"/>
<path d="M133.929 20.9337C133.997 22.0498 133.895 23.0813 133.625 24.0283C133.354 24.9415 132.881 25.8885 132.204 26.8693C130.784 28.8985 128.636 30.7418 125.761 32.399C122.887 34.0224 119.555 35.3076 115.767 36.2546C114.482 36.5252 113.18 36.7789 111.861 37.0156C110.576 37.2185 109.595 37.32 108.918 37.32C108.648 37.32 108.462 37.3031 108.36 37.2693C108.293 37.2693 108.276 37.2355 108.31 37.1678C108.343 37.1002 108.36 36.6774 108.36 35.8995C108.394 35.1216 108.411 33.8533 108.411 32.0946C108.445 30.3359 108.462 28.0192 108.462 25.1444C108.496 22.2358 108.529 18.6507 108.563 14.3893C108.563 13.3746 108.563 12.4107 108.563 11.4976C108.563 10.5844 108.563 9.77269 108.563 9.06245C108.597 8.3522 108.614 7.77724 108.614 7.33757C108.648 6.89789 108.665 6.64424 108.665 6.57659C108.699 6.23838 108.766 6.03546 108.868 5.96781C108.969 5.86635 109.172 5.83253 109.476 5.86635C111.066 6.00164 112.723 6.25529 114.448 6.62733C116.173 6.96554 117.881 7.42212 119.572 7.99708C121.297 8.53822 122.937 9.19773 124.493 9.97562C126.083 10.7197 127.52 11.599 128.805 12.6137C132.052 15.1503 133.76 17.9236 133.929 20.9337ZM125.964 22.7093C126.1 22.1005 126.049 21.4748 125.812 20.8322C125.44 19.8514 124.594 18.8706 123.275 17.8898C121.99 16.909 120.333 16.0127 118.304 15.201C118.033 15.0657 117.78 14.9642 117.543 14.8966C117.306 14.7951 117.154 14.7275 117.086 14.6937L116.883 14.6429L116.934 15.3024C116.934 15.4716 116.951 15.8436 116.985 16.4185C117.019 16.9597 117.035 17.5346 117.035 18.1434C117.069 18.7522 117.103 19.4117 117.137 20.122C117.171 20.7984 117.205 21.3226 117.238 21.6946C117.238 22.0667 117.255 22.5402 117.289 23.1151C117.323 23.6563 117.34 24.1467 117.34 24.5864C117.374 25.026 117.391 25.4319 117.391 25.8039C117.391 26.1759 117.407 26.3958 117.441 26.4634V27.3259C117.441 27.5288 117.458 27.6641 117.492 27.7317C117.492 27.7994 117.492 27.867 117.492 27.9346C117.526 27.9346 117.661 27.9008 117.898 27.8332C118.168 27.7317 118.49 27.6303 118.862 27.5288C119.437 27.3597 120.096 27.1398 120.84 26.8693C121.584 26.5987 122.312 26.2774 123.022 25.9054C123.732 25.4995 124.358 25.0429 124.899 24.5356C125.474 23.9945 125.829 23.3857 125.964 22.7093Z" fill="#FE3448"/>
<path d="M27.6599 10.0394C27.2193 9.97362 26.9359 9.92916 26.8098 9.90601C26.6526 9.8847 26.5447 9.90646 26.4862 9.97128C26.4587 10.0343 26.4523 10.188 26.4669 10.4325C26.4796 10.6464 26.5197 11.058 26.5872 11.6673C26.5999 11.8813 26.6337 12.1859 26.6884 12.5814C26.7103 12.9481 26.7513 13.375 26.8115 13.8621C26.8388 14.3205 26.8835 14.8085 26.9455 15.3262C26.9764 15.8457 27.0074 16.3652 27.0383 16.8847C27.0675 17.3737 27.1158 17.9228 27.1832 18.5321C27.2196 19.1433 27.2725 19.7689 27.3418 20.4088C27.3782 21.02 27.4283 21.5997 27.4922 22.1479C27.525 22.698 27.5541 23.1869 27.5796 23.6148C27.605 24.0426 27.6524 24.5765 27.7217 25.2164C27.7581 25.8275 27.8128 26.4837 27.8858 27.1847C27.9276 27.8875 27.986 28.6048 28.0607 29.3363C28.1026 30.0392 28.1426 30.7115 28.1809 31.3533C28.2191 31.995 28.2719 32.6206 28.3394 33.2299C28.3758 33.8411 28.4241 34.3903 28.4843 34.8774C28.5116 35.3358 28.5508 35.7321 28.602 36.0664C28.6202 36.372 28.632 36.5706 28.6374 36.6623C28.6886 36.9966 28.7315 37.1934 28.7662 37.2527C28.7698 37.3138 28.8192 37.3569 28.9142 37.3819C28.9764 37.3782 29.3677 37.4009 30.088 37.45C30.7772 37.5009 31.5442 37.5472 32.3888 37.5889C33.2335 37.6306 34.0471 37.6742 34.8296 37.7196C35.581 37.7668 36.0499 37.7849 36.2364 37.7738L36.8919 37.7807L36.7251 35.7666C36.6594 35.1878 36.5993 34.44 36.5447 33.5232C36.4572 32.5777 36.3761 31.7392 36.3013 31.0076C36.2283 30.3066 36.1445 29.4222 36.0497 28.3545C35.922 27.258 35.8035 26.0537 35.6941 24.7415C35.5519 23.4006 35.4197 21.9671 35.2976 20.4409C35.1444 18.9166 35.005 17.3609 34.8792 15.7736C34.7552 14.7383 34.6695 13.8234 34.6222 13.0288C34.5419 12.2056 34.4826 11.7337 34.4443 11.6134L34.4142 11.1091L33.7534 11.0105C33.5961 10.9892 33.4078 10.9697 33.1884 10.9521C32.9361 10.9058 32.5897 10.8498 32.1491 10.784C31.6756 10.6896 31.0768 10.5872 30.3529 10.477C29.6289 10.3668 28.7312 10.2209 27.6599 10.0394Z" fill="#FE3448"/>
<path d="M103.802 4.73089C104.249 4.62433 104.536 4.55328 104.663 4.51776C104.823 4.48224 104.935 4.5 104.999 4.57104C105.03 4.64209 105.046 4.8197 105.046 5.10387C105.046 5.35253 105.03 5.83208 104.999 6.54252C104.999 6.79117 104.983 7.14639 104.951 7.60818C104.951 8.03444 104.935 8.53175 104.903 9.1001C104.903 9.63294 104.887 10.2013 104.855 10.8052C104.855 11.409 104.855 12.0129 104.855 12.6168C104.855 13.1851 104.839 13.8245 104.807 14.535C104.807 15.2454 104.791 15.9736 104.759 16.7196C104.759 17.43 104.743 18.105 104.711 18.7443C104.711 19.3837 104.711 19.9521 104.711 20.4494C104.711 20.9467 104.695 21.5684 104.663 22.3143C104.663 23.0248 104.648 23.7885 104.616 24.6055C104.616 25.4225 104.6 26.2573 104.568 27.1098C104.568 27.9268 104.568 28.7083 104.568 29.4543C104.568 30.2002 104.552 30.9284 104.52 31.6389C104.52 32.3493 104.504 32.9887 104.472 33.5571C104.472 34.0899 104.456 34.5517 104.424 34.9424C104.424 35.2976 104.424 35.5285 104.424 35.6351C104.392 36.0258 104.36 36.2567 104.328 36.3278C104.328 36.3988 104.28 36.4521 104.185 36.4876C104.121 36.4876 103.722 36.5409 102.988 36.6475C102.286 36.754 101.504 36.8606 100.642 36.9672C99.7805 37.0737 98.9507 37.1803 98.1528 37.2869C97.3869 37.3934 96.9082 37.4467 96.7167 37.4467L96.0464 37.5L96.0943 35.1555C96.1262 34.4806 96.1422 33.6103 96.1422 32.5447C96.1741 31.4435 96.206 30.4666 96.2379 29.6141C96.2699 28.7971 96.3018 27.767 96.3337 26.5237C96.3975 25.2449 96.4454 23.8418 96.4773 22.3143C96.5411 20.7513 96.589 19.0818 96.6209 17.3057C96.6847 15.5296 96.7326 13.718 96.7645 11.8708C96.8284 10.6631 96.8603 9.59741 96.8603 8.67384C96.8922 7.71475 96.9241 7.16415 96.956 7.02207V6.43595L97.6262 6.2761C97.7858 6.24058 97.9773 6.20506 98.2007 6.16954C98.456 6.09849 98.8071 6.00969 99.2539 5.90312C99.7326 5.76103 100.339 5.60118 101.073 5.42357C101.807 5.24596 102.717 5.01507 103.802 4.73089Z" fill="#FE3448"/>
<path d="M85.5063 2.00196C85.5402 2.03579 85.7938 2.30636 86.2673 2.81367C86.7746 3.32099 87.3665 3.91286 88.0429 4.58928C88.7193 5.29953 89.362 5.97595 89.9707 6.61855C90.6133 7.26115 91.0361 7.70083 91.239 7.93758C91.4419 8.1405 91.611 8.32652 91.7463 8.49562C91.9154 8.66473 92 8.76619 92 8.80002C91.6956 9.1044 91.3743 9.4257 91.0361 9.76392C90.7317 10.0345 90.3766 10.3727 89.9707 10.7786C89.5649 11.1506 89.1252 11.5564 88.6517 11.9961C86.7577 13.7548 85.1681 15.2429 83.8829 16.4605C82.5977 17.6442 81.5662 18.6081 80.7883 19.3522C80.0442 20.0625 79.5031 20.5867 79.1649 20.9249C78.8605 21.2293 78.7083 21.3815 78.7083 21.3815C78.7083 21.4153 78.7928 21.4829 78.9619 21.5844C79.1649 21.6859 79.4016 21.8212 79.6722 21.9903C81.2618 22.8358 82.8683 23.7151 84.4917 24.6283C86.1151 25.5415 87.6033 26.387 88.9561 27.1649C90.3089 27.909 91.425 28.5347 92.3044 29.042C93.2176 29.5493 93.708 29.8368 93.7756 29.9044C93.8432 29.972 93.8771 30.0397 93.8771 30.1073C93.8771 30.175 93.7756 30.3779 93.5727 30.7161C93.4036 31.0205 93.1837 31.3925 92.9132 31.8322C92.6426 32.2719 92.3044 32.8299 91.8985 33.5064C91.4927 34.149 91.1376 34.7239 90.8332 35.2312C90.5288 35.7386 90.2582 36.1951 90.0215 36.601C89.7847 36.973 89.6494 37.1929 89.6156 37.2605C89.5818 37.2943 89.5311 37.3112 89.4634 37.3112C89.3958 37.3112 89.2098 37.2436 88.9054 37.1083C88.6348 36.9392 88.212 36.7025 87.6371 36.3981C87.0959 36.0599 86.318 35.6033 85.3034 35.0283C83.8491 34.2166 82.4117 33.4049 80.9912 32.5932C79.5707 31.7815 78.1502 30.9529 76.7297 30.1073L75.6644 29.4986L75.6137 31.3756V35.2312C75.6475 36.1444 75.6475 36.7532 75.6137 37.0576C75.5798 37.362 75.5291 37.4972 75.4615 37.4634C75.4276 37.4634 75.3938 37.4634 75.36 37.4634C75.3262 37.4296 75.2754 37.4127 75.2078 37.4127C75.1402 37.4127 74.785 37.3451 74.1424 37.2098C73.5337 37.0407 72.8234 36.8546 72.0117 36.6517C70.4221 36.2797 69.1538 35.9922 68.2068 35.7893C67.2598 35.5525 66.7187 35.4342 66.5834 35.4342C66.5496 35.4342 66.5158 35.4003 66.4819 35.3327C66.4481 35.2312 66.4143 34.9945 66.3805 34.6225C66.3467 34.2166 66.3128 33.6078 66.279 32.7961C66.279 31.9844 66.2452 30.8683 66.1776 29.4478C66.0761 25.254 65.9577 21.094 65.8224 16.9678C65.721 12.8078 65.5857 8.63091 65.4166 4.43709L65.3658 1.95123L66.1268 2.00196C66.2959 2.00196 66.7694 2.0527 67.5473 2.15416C68.359 2.25562 69.2384 2.374 70.1854 2.50928C71.1324 2.61075 72.0286 2.72912 72.8741 2.8644C73.7197 2.96587 74.2608 3.03351 74.4976 3.06733L74.9034 3.11806L74.9541 3.92977C74.9541 4.1327 74.9711 4.69075 75.0049 5.60392C75.0387 6.51709 75.0556 7.4979 75.0556 8.54635C75.0894 9.62863 75.1063 10.5418 75.1063 11.2859C75.1402 12.0299 75.174 12.402 75.2078 12.402C75.2078 12.3681 75.6306 11.9285 76.4761 11.0829C77.3216 10.2036 78.3363 9.17205 79.52 7.98831C81.0081 6.46636 82.1411 5.29953 82.919 4.48782C83.7307 3.64229 84.3226 3.03351 84.6946 2.66148C85.0667 2.28944 85.2865 2.08652 85.3541 2.0527C85.4218 2.01888 85.4725 2.00196 85.5063 2.00196Z" fill="#FE3448"/>
<path d="M0.507317 14.7103C0.473496 13.5265 0.422764 12.3766 0.355122 11.2605C0.321301 10.1444 0.270569 9.12977 0.202927 8.2166C0.169106 7.30343 0.135285 6.52554 0.101463 5.88294C0.0676423 5.24034 0.0507317 4.81758 0.0507317 4.61465L0 3.04197L0.405854 2.9405C1.25138 2.7714 2.18146 2.6192 3.1961 2.48392C4.24455 2.34863 5.29301 2.24717 6.34146 2.17953C7.42374 2.07806 8.4722 2.01042 9.48683 1.9766C10.5353 1.94278 11.4823 1.94278 12.3278 1.9766C17.6377 2.28099 21.172 3.39709 22.9307 5.32489C24.3174 6.84684 24.4865 8.65627 23.438 10.7532C22.3896 12.8163 20.2589 14.8625 17.0459 16.8917C16.7753 17.0608 16.5385 17.213 16.3356 17.3483C16.1327 17.4498 16.0312 17.5174 16.0312 17.5512C16.065 17.5851 16.1158 17.6189 16.1834 17.6527C16.2511 17.6865 16.3863 17.7373 16.5893 17.8049C16.9951 17.974 17.5024 18.2446 18.1112 18.6166C18.7538 18.9886 19.295 19.3099 19.7346 19.5805C20.4787 20.1216 21.1889 20.7812 21.8654 21.559C22.5756 22.3369 23.0998 23.0641 23.438 23.7405C23.7763 24.3493 23.9961 25.0595 24.0976 25.8712C24.199 26.6491 24.1652 27.3763 23.9961 28.0527C23.5226 30.1834 22.1528 32.0267 19.8868 33.5825C17.6546 35.1382 14.7629 36.2543 11.2117 36.9307C10.2309 37.0999 9.30081 37.2351 8.42146 37.3366C7.57593 37.4042 6.57821 37.455 5.42829 37.4888C4.81951 37.4888 4.21073 37.4888 3.60195 37.4888C3.02699 37.4888 2.62114 37.4719 2.38439 37.4381C2.14764 37.4042 1.94472 37.3873 1.77561 37.3873C1.6065 37.3873 1.52195 37.3704 1.52195 37.3366C1.48813 36.694 1.45431 36.0007 1.42049 35.2566C1.38667 34.614 1.35285 33.8699 1.31902 33.0244C1.2852 32.1789 1.23447 31.2657 1.16683 30.2849C1.13301 29.3041 1.08228 28.1711 1.01463 26.8859C0.980813 25.6007 0.930081 24.2478 0.862439 22.8273C0.794797 21.4068 0.727154 20.0033 0.659512 18.6166C0.625691 17.1961 0.574959 15.894 0.507317 14.7103ZM14.8644 26.7337C15.135 26.2602 15.2026 25.7867 15.0673 25.3132C14.6615 23.8927 12.9873 22.3877 10.0449 20.7981L9.23317 20.3922L9.2839 21.1532C9.2839 21.3899 9.30081 21.8465 9.33463 22.5229C9.36846 23.1994 9.40228 23.9096 9.4361 24.6537C9.50374 25.4316 9.53756 26.1587 9.53756 26.8351C9.57138 27.4777 9.6052 27.9005 9.63902 28.1034L9.68976 28.8137L10.0449 28.7629C10.1463 28.7291 10.3154 28.6953 10.5522 28.6615C10.7889 28.6277 11.0257 28.5769 11.2624 28.5093C13.1564 28.2049 14.3571 27.613 14.8644 26.7337ZM8.77659 9.58636C8.74276 9.58636 8.72585 9.8231 8.72585 10.2966C8.72585 10.7363 8.75968 11.2605 8.82732 11.8693L8.92878 14.1015L9.13171 14.0507C9.19935 14.0169 9.40228 13.9324 9.74049 13.7971C10.0787 13.628 10.4676 13.442 10.9073 13.239C12.0911 12.6641 13.038 12.1399 13.7483 11.6664C14.4585 11.159 14.8475 10.7532 14.9151 10.4488C14.9489 10.2797 14.8813 10.1275 14.7122 9.99221C14.6107 9.89075 14.4754 9.80619 14.3063 9.73855C14.1711 9.67091 13.9681 9.63709 13.6976 9.63709C13.427 9.60327 13.0888 9.58636 12.6829 9.58636C12.2771 9.55254 11.7528 9.53563 11.1102 9.53563C10.4676 9.53563 9.90959 9.53563 9.4361 9.53563C8.99642 9.53563 8.77659 9.55254 8.77659 9.58636Z" fill="#FE3448"/>
<circle cx="30.2439" cy="3.90244" r="3.90244" fill="#FE3448"/>
</svg>
