<svg width="133" height="40" viewBox="0 0 133 40" fill="none" xmlns="http://www.w3.org/2000/svg">
<path d="M18.3241 5.09558C18.3481 5.1235 18.5279 5.34681 18.8637 5.76551C19.2234 6.18421 19.6431 6.6727 20.1227 7.23098C20.6023 7.81716 21.058 8.37544 21.4896 8.90579C21.9453 9.43615 22.245 9.79903 22.3889 9.99443C22.5328 10.1619 22.6527 10.3154 22.7486 10.455C22.8686 10.5946 22.9285 10.6783 22.9285 10.7062C22.7127 10.9574 22.4849 11.2226 22.245 11.5018C22.0292 11.7251 21.7774 12.0042 21.4896 12.3392C21.2019 12.6462 20.8901 12.9812 20.5544 13.3441C19.2114 14.7956 18.0843 16.0238 17.173 17.0287C16.2617 18.0056 15.5303 18.8012 14.9787 19.4153C14.4511 20.0015 14.0674 20.4341 13.8276 20.7133C13.6118 20.9645 13.5039 21.0901 13.5039 21.0901C13.5039 21.118 13.5638 21.1738 13.6837 21.2576C13.8276 21.3413 13.9955 21.453 14.1873 21.5926C15.3144 22.2904 16.4536 23.0161 17.6047 23.7698C18.7558 24.5235 19.8109 25.2213 20.7702 25.8633C21.7294 26.4774 22.5208 26.9938 23.1443 27.4125C23.7918 27.8313 24.1396 28.0685 24.1875 28.1243C24.2355 28.1802 24.2595 28.236 24.2595 28.2918C24.2595 28.3477 24.1875 28.5151 24.0436 28.7943C23.9237 29.0455 23.7678 29.3525 23.576 29.7154C23.3842 30.0783 23.1443 30.5389 22.8566 31.0971C22.5688 31.6275 22.317 32.102 22.1011 32.5207C21.8853 32.9394 21.6935 33.3163 21.5256 33.6512C21.3577 33.9583 21.2618 34.1397 21.2378 34.1956C21.2138 34.2235 21.1779 34.2374 21.1299 34.2374C21.0819 34.2374 20.95 34.1816 20.7342 34.07C20.5424 33.9304 20.2426 33.735 19.8349 33.4838C19.4512 33.2046 18.8997 32.8278 18.1802 32.3533C17.149 31.6833 16.1298 31.0134 15.1226 30.3435C14.1154 29.6736 13.1082 28.9897 12.101 28.2918L11.3455 27.7894L11.3096 29.3386V32.5207C11.3336 33.2744 11.3336 33.7769 11.3096 34.0281C11.2856 34.2793 11.2496 34.391 11.2017 34.363C11.1777 34.363 11.1537 34.363 11.1297 34.363C11.1057 34.3351 11.0698 34.3212 11.0218 34.3212C10.9738 34.3212 10.722 34.2653 10.2664 34.1537C9.83472 34.0141 9.33112 33.8606 8.75557 33.6931C7.62845 33.3861 6.72915 33.1488 6.05767 32.9813C5.3862 32.7859 5.0025 32.6882 4.90657 32.6882C4.88259 32.6882 4.85861 32.6603 4.83463 32.6045C4.81065 32.5207 4.78666 32.3253 4.76268 32.0183C4.7387 31.6833 4.71472 31.1809 4.69074 30.511C4.69074 29.841 4.66676 28.9199 4.6188 27.7475C4.54685 24.2862 4.46292 20.8528 4.36699 17.4474C4.29505 14.014 4.19912 10.5667 4.07922 7.10537L4.04324 5.05371L4.58282 5.09558C4.70273 5.09558 5.03847 5.13745 5.59004 5.22119C6.16559 5.30493 6.7891 5.40263 7.46058 5.51429C8.13205 5.59803 8.76756 5.69572 9.36709 5.80738C9.96662 5.89112 10.3503 5.94695 10.5182 5.97486L10.806 6.01673L10.8419 6.68666C10.8419 6.85414 10.8539 7.31472 10.8779 8.06839C10.9019 8.82205 10.9139 9.63155 10.9139 10.4969C10.9379 11.3901 10.9499 12.1438 10.9499 12.7579C10.9738 13.372 10.9978 13.679 11.0218 13.679C11.0218 13.6511 11.3216 13.2882 11.9211 12.5904C12.5206 11.8646 13.2401 11.0133 14.0794 10.0363C15.1346 8.78018 15.938 7.81716 16.4895 7.14724C17.0651 6.44939 17.4848 5.94695 17.7485 5.6399C18.0123 5.33285 18.1682 5.16537 18.2162 5.13745C18.2641 5.10954 18.3001 5.09558 18.3241 5.09558Z" fill="white"/>
<path d="M27.0828 31.5515C27.2454 31.5756 27.6172 31.6357 28.1981 31.732C28.7791 31.8042 29.3949 31.8884 30.0455 31.9847C30.6961 32.0569 31.3003 32.1291 31.858 32.2013C32.3924 32.2735 32.7177 32.3096 32.8339 32.3096L33.3568 32.3457L33.3219 30.5407C33.3219 30.3 33.3219 30.0112 33.3219 29.6743C33.2987 29.3133 33.2871 28.9402 33.2871 28.5552C33.2638 28.1701 33.2522 27.785 33.2522 27.4C33.229 26.9908 33.2057 26.6178 33.1825 26.2808C33.1593 25.631 33.136 24.8248 33.1128 23.8621C33.0895 22.8994 33.0663 21.8285 33.0431 20.6492C32.9966 19.4699 32.9501 18.2184 32.9036 16.8947C32.8572 15.547 32.8107 14.1752 32.7642 12.7793C32.741 11.7444 32.7294 10.9382 32.7294 10.3606C32.7061 9.78297 32.6829 9.3618 32.6597 9.09706C32.6364 8.80826 32.6132 8.63979 32.5899 8.59166C32.5667 8.51946 32.5435 8.48336 32.5202 8.48336C32.4273 8.48336 32.0671 8.41115 31.4397 8.26675C30.7891 8.09828 29.9061 7.88168 28.7907 7.61694C28.1865 7.47254 27.7218 7.36424 27.3965 7.29204C27.0711 7.21984 26.8388 7.17171 26.6994 7.14764C26.5367 7.09951 26.4437 7.07544 26.4205 7.07544C26.374 7.07544 26.3392 7.08747 26.3159 7.11154C26.2695 7.18374 26.2695 7.67711 26.3159 8.59166C26.3392 8.97673 26.3624 9.62653 26.3857 10.5411C26.3857 11.4316 26.3973 12.3341 26.4205 13.2486C26.4205 13.7059 26.4321 14.2113 26.4554 14.7648C26.4554 15.2943 26.467 15.8358 26.4902 16.3893C26.4902 16.9188 26.5018 17.4363 26.5251 17.9417C26.5251 18.4471 26.5251 18.8923 26.5251 19.2774C26.5251 19.6384 26.5367 20.0956 26.5599 20.6492C26.5599 21.2027 26.5716 21.7924 26.5948 22.4181C26.618 23.0438 26.6413 23.6816 26.6645 24.3314C26.6645 24.9812 26.6645 25.5949 26.6645 26.1725C26.6645 26.7502 26.6761 27.3037 26.6994 27.8332C26.6994 28.3626 26.711 28.844 26.7342 29.2772C26.7342 29.7104 26.7458 30.0714 26.7691 30.3602C26.7691 30.649 26.7691 30.8295 26.7691 30.9017L26.8039 31.5154L27.0828 31.5515Z" fill="white"/>
<path d="M35.5435 32.5038C35.3497 32.5038 35.2286 32.5038 35.1802 32.5038C35.1318 32.4796 35.1197 32.4433 35.1439 32.3948C35.1439 32.3706 35.1439 32.0558 35.1439 31.4504C35.1681 30.8207 35.1923 29.9973 35.2165 28.9802C35.2407 27.9388 35.2528 26.7643 35.2528 25.4565C35.2771 24.1246 35.2892 22.7442 35.2892 21.3153C35.3134 19.8865 35.3255 18.4577 35.3255 17.0288C35.3497 15.5758 35.3618 14.2317 35.3618 12.9966C35.386 11.7615 35.3982 10.6717 35.3982 9.72726C35.3982 8.78277 35.3982 8.08047 35.3982 7.62033C35.4466 7.35394 35.495 7.19653 35.5435 7.14809C35.6161 7.09966 35.7493 7.07544 35.943 7.07544C36.1852 7.07544 36.5243 7.11177 36.9602 7.18442C37.4203 7.23285 37.9047 7.30551 38.4132 7.40238C38.9218 7.49925 39.4304 7.60822 39.9389 7.72931C40.4717 7.82618 40.9319 7.92305 41.3193 8.01992C42.6029 8.35897 43.9833 8.83121 45.4605 9.43665C46.9378 10.0179 48.3303 10.7323 49.638 11.5799C50.97 12.4275 52.1082 13.4325 53.0527 14.595C54.0214 15.7332 54.6269 17.0409 54.869 18.5182C54.9417 18.9783 54.9659 19.4869 54.9417 20.0439C54.9175 20.6009 54.8448 21.1095 54.7237 21.5696C54.2636 23.3133 53.1738 24.948 51.4544 26.4737C49.7349 27.9994 47.4827 29.3071 44.6977 30.3969C44.1165 30.6149 43.4263 30.857 42.6271 31.1234C41.8521 31.3656 41.0408 31.5957 40.1932 31.8136C39.3698 32.0074 38.5464 32.1769 37.723 32.3222C36.8996 32.4433 36.1731 32.5038 35.5435 32.5038ZM41.8279 14.1954C41.8037 14.1954 41.7916 14.3649 41.7916 14.704C41.8158 14.8493 41.8279 15.152 41.8279 15.6121C41.8521 16.048 41.8763 16.5082 41.9006 16.9925C41.9248 17.4769 41.9369 17.9975 41.9369 18.5545C41.9611 19.0873 41.9853 19.5111 42.0095 19.826C42.058 20.4798 42.0943 21.1337 42.1185 21.7876C42.1427 22.4172 42.1548 23.059 42.1548 23.7129C42.1791 23.7855 42.1912 23.8945 42.1912 24.0398C42.1912 24.1851 42.1912 24.3183 42.1912 24.4394C42.1912 24.7784 42.2154 24.9237 42.2638 24.8753C42.3122 24.8753 42.4212 24.8511 42.5908 24.8027C42.7603 24.73 42.9782 24.6574 43.2446 24.5847C46.1265 23.7371 47.8944 22.6594 48.5483 21.3517C48.6693 21.0368 48.7541 20.7704 48.8025 20.5525C48.9963 19.5111 48.5483 18.4577 47.4585 17.3921C46.3687 16.3265 44.7582 15.3699 42.6271 14.5223C42.4333 14.4255 42.2517 14.3528 42.0822 14.3044C41.9369 14.2317 41.8521 14.1954 41.8279 14.1954Z" fill="white"/>
<path d="M130.295 10.5991C131.53 11.592 132.366 12.7787 132.802 14.1591C132.874 14.4012 132.923 14.6071 132.947 14.7766C132.971 14.9461 132.971 15.2731 132.947 15.7574C132.947 15.9996 132.947 16.1933 132.947 16.3386C132.947 16.4839 132.935 16.6171 132.911 16.7382C132.911 16.8351 132.899 16.9441 132.874 17.0652C132.85 17.162 132.814 17.2952 132.765 17.4647C132.644 17.8764 132.487 18.3003 132.293 18.7362C132.099 19.1479 131.906 19.5111 131.712 19.826C131.639 19.9228 131.518 20.0681 131.349 20.2619C131.203 20.4314 131.034 20.613 130.84 20.8068C130.671 20.9763 130.501 21.1458 130.332 21.3153C130.162 21.4849 130.017 21.6181 129.896 21.7149C129.799 21.7876 129.666 21.8844 129.496 22.0055C129.327 22.1024 129.133 22.2114 128.915 22.3325C128.721 22.4536 128.527 22.5746 128.334 22.6957C128.164 22.7926 128.019 22.8774 127.898 22.95C127.607 23.0953 127.183 23.2648 126.626 23.4586C126.093 23.6523 125.633 23.7976 125.246 23.8945C124.713 24.0156 124.41 24.1125 124.338 24.1851C124.313 24.2093 124.289 24.2578 124.265 24.3304C124.265 24.4031 124.265 24.5605 124.265 24.8027C124.265 25.0206 124.265 25.3718 124.265 25.8561C124.265 26.3405 124.277 27.0064 124.301 27.8541C124.326 28.847 124.338 29.6946 124.338 30.3969C124.362 31.0992 124.362 31.4504 124.338 31.4504C124.338 31.4504 124.18 31.4867 123.865 31.5593C123.575 31.6078 123.199 31.6804 122.739 31.7773C122.279 31.85 121.783 31.9347 121.25 32.0316C120.717 32.1042 120.221 32.189 119.761 32.2859C119.3 32.3585 118.913 32.4191 118.598 32.4675C118.283 32.5159 118.102 32.5401 118.053 32.5401C118.005 32.5401 117.981 32.3706 117.981 32.0316C117.981 31.9589 117.969 31.8015 117.944 31.5593C117.944 31.3172 117.932 31.0144 117.908 30.6512C117.884 30.2879 117.86 29.8883 117.835 29.4524C117.835 28.9923 117.835 28.52 117.835 28.0357C117.738 24.9843 117.654 22.1145 117.581 19.4264C117.508 16.7382 117.436 14.4739 117.363 12.6334C117.363 12.149 117.351 11.6768 117.327 11.2166C117.327 10.7323 117.315 10.2843 117.29 9.87256C117.29 9.46086 117.278 9.0976 117.254 8.78277C117.254 8.46795 117.254 8.23788 117.254 8.09257V7.07544H117.472C117.642 7.07544 118.017 7.11177 118.598 7.18442C119.179 7.25707 120.088 7.39027 121.323 7.58401C121.904 7.65666 122.461 7.72931 122.994 7.80196C123.526 7.87462 123.865 7.92305 124.011 7.94727C124.519 8.01992 125.052 8.14101 125.609 8.31053C126.19 8.45584 126.759 8.64958 127.316 8.89175C127.873 9.10971 128.406 9.36399 128.915 9.6546C129.448 9.94521 129.908 10.26 130.295 10.5991ZM128.116 16.8835C128.213 16.6898 128.261 16.5687 128.261 16.5203C128.285 16.4476 128.285 16.3265 128.261 16.157C128.237 16.0601 128.2 15.9512 128.152 15.8301C128.128 15.709 128.091 15.6121 128.043 15.5395C127.898 15.2246 127.583 14.8735 127.099 14.486C126.638 14.0743 126.19 13.7716 125.754 13.5778C125.609 13.5052 125.428 13.4325 125.21 13.3599C125.016 13.2872 124.834 13.2267 124.665 13.1783C124.495 13.1056 124.338 13.0572 124.192 13.0329C124.071 12.9845 124.011 12.9724 124.011 12.9966C124.011 12.9966 124.011 13.1419 124.011 13.4325C124.011 13.7231 124.011 14.0864 124.011 14.5223C124.011 14.9582 124.011 15.4305 124.011 15.939C124.035 16.4476 124.047 16.932 124.047 17.3921C124.071 17.828 124.083 18.2034 124.083 18.5182C124.108 18.833 124.12 19.0147 124.12 19.0631C124.168 19.3295 124.253 19.4627 124.374 19.4627C124.398 19.4627 124.471 19.4385 124.592 19.39C124.737 19.3416 124.895 19.2932 125.064 19.2447C125.742 18.9783 126.36 18.6272 126.917 18.1913C127.498 17.7554 127.898 17.3194 128.116 16.8835Z" fill="white"/>
<path d="M112.064 10.5628C113.299 11.5557 114.147 12.7544 114.607 14.1591C114.68 14.4255 114.716 14.6313 114.716 14.7766C114.74 14.9219 114.752 15.2367 114.752 15.7211C114.752 15.9633 114.752 16.157 114.752 16.3023C114.752 16.4476 114.74 16.5808 114.716 16.7019C114.716 16.823 114.704 16.9441 114.68 17.0652C114.656 17.162 114.619 17.2952 114.571 17.4647C114.45 17.8522 114.292 18.2639 114.099 18.6998C113.905 19.1358 113.711 19.499 113.517 19.7896C113.445 19.8865 113.324 20.0318 113.154 20.2255C113.009 20.3951 112.839 20.5767 112.646 20.7704C112.476 20.94 112.306 21.1095 112.137 21.279C111.967 21.4485 111.822 21.5817 111.701 21.6786C111.604 21.7512 111.459 21.8602 111.265 22.0055C111.071 22.1266 110.866 22.2477 110.648 22.3688C110.43 22.4899 110.212 22.611 109.994 22.7321C109.8 22.8531 109.643 22.9379 109.521 22.9863L109.158 23.168L112.972 25.0206C114.038 25.5534 114.946 26.0135 115.697 26.401C116.448 26.7643 116.835 26.958 116.859 26.9822C116.908 27.0307 116.884 27.176 116.787 27.4181C116.69 27.6361 116.472 28.1447 116.133 28.9438C115.6 30.2032 115.225 31.0871 115.007 31.5957C114.789 32.1042 114.656 32.3827 114.607 32.4312C114.583 32.4554 114.51 32.4554 114.389 32.4312C114.292 32.3827 114.038 32.2616 113.626 32.0679C113.215 31.8742 112.597 31.5836 111.774 31.1961C110.975 30.7844 109.86 30.2395 108.432 29.5614C107.802 29.2466 107.269 28.9923 106.833 28.7985C106.397 28.5806 106.167 28.4716 106.143 28.4716V29.961L106.179 31.4504L105.598 31.5593C105.308 31.6078 104.847 31.6804 104.218 31.7773C103.612 31.8742 102.983 31.9831 102.329 32.1042C101.699 32.2011 101.13 32.298 100.622 32.3948C100.137 32.4675 99.8829 32.5038 99.8587 32.5038C99.8345 32.5038 99.7981 32.3343 99.7497 31.9953C99.7497 31.9226 99.7376 31.7652 99.7134 31.523C99.7134 31.2808 99.7013 30.9781 99.677 30.6149C99.677 30.2516 99.6649 29.8399 99.6407 29.3798C99.6407 28.9196 99.6407 28.4474 99.6407 27.963C99.5438 24.9359 99.4591 22.0903 99.3864 19.4264C99.3138 16.7382 99.2411 14.4739 99.1685 12.6334C99.1443 12.149 99.12 11.6647 99.0958 11.1803C99.0958 10.696 99.0837 10.2479 99.0595 9.83624C99.0595 9.42454 99.0595 9.07338 99.0595 8.78277C99.0595 8.46795 99.0595 8.23788 99.0595 8.09257V7.07544H99.2774C99.447 7.07544 99.8223 7.11177 100.404 7.18442C100.985 7.25707 101.893 7.37816 103.128 7.54768C103.709 7.64455 104.266 7.72931 104.799 7.80197C105.332 7.8504 105.671 7.88673 105.816 7.91094C106.325 7.9836 106.858 8.10468 107.415 8.27421C107.996 8.41951 108.565 8.61325 109.122 8.85543C109.679 9.0976 110.212 9.36399 110.72 9.65461C111.229 9.94521 111.677 10.2479 112.064 10.5628ZM109.921 16.8835C110.018 16.6898 110.066 16.5566 110.066 16.4839C110.091 16.4113 110.091 16.2902 110.066 16.1207C110.018 16.0238 109.982 15.9269 109.957 15.8301C109.933 15.709 109.897 15.6 109.848 15.5031C109.679 15.2125 109.364 14.8735 108.904 14.486C108.444 14.0743 107.996 13.7716 107.56 13.5778C107.245 13.4325 106.882 13.2872 106.47 13.1419C106.058 12.9966 105.84 12.9361 105.816 12.9603C105.816 12.9603 105.816 13.1177 105.816 13.4325C105.816 13.7231 105.816 14.0864 105.816 14.5223C105.816 14.9582 105.816 15.4305 105.816 15.939C105.84 16.4476 105.853 16.932 105.853 17.3921C105.877 17.828 105.889 18.2034 105.889 18.5182C105.913 18.833 105.925 19.0147 105.925 19.0631C105.974 19.3053 106.058 19.4264 106.179 19.4264C106.204 19.4264 106.276 19.4022 106.397 19.3537C106.543 19.3053 106.7 19.2568 106.87 19.2084C107.548 18.942 108.165 18.603 108.722 18.1913C109.303 17.7554 109.703 17.3194 109.921 16.8835Z" fill="white"/>
<path d="M92.8828 8.84973C92.0573 8.29632 91.1963 7.87524 90.2999 7.5865C89.38 7.29777 88.2949 7.12934 87.0448 7.08121C85.8653 7.03309 84.6269 7.28574 83.3296 7.83915C82.0086 8.3685 80.8646 9.10238 79.8975 10.0408C77.7038 12.1822 76.3593 14.9373 75.8639 18.3059C75.8403 18.5224 75.8285 18.7991 75.8285 19.136C75.8049 19.4488 75.8049 19.7856 75.8285 20.1466C75.8285 20.4834 75.8403 20.8203 75.8639 21.1572C75.8639 21.494 75.8875 21.7827 75.9347 22.0234C76.1234 23.2746 76.4654 24.4656 76.9608 25.5965C77.4325 26.7033 78.0458 27.7019 78.8006 28.5921C79.5555 29.4824 80.44 30.2403 81.4543 30.8659C82.445 31.4915 83.5655 31.9367 84.8157 32.2013C84.9808 32.2254 85.2167 32.2495 85.5233 32.2735C85.8064 32.2976 86.113 32.3217 86.4432 32.3457C86.7499 32.3457 87.0565 32.3457 87.3632 32.3457C87.6698 32.3457 87.9057 32.3337 88.0708 32.3096C89.4154 32.1171 90.6538 31.684 91.786 31.0103C92.9182 30.3366 93.9207 29.4944 94.7935 28.4839C95.6427 27.4733 96.3385 26.3424 96.8811 25.0912C97.4236 23.84 97.7774 22.5527 97.9425 21.2293C98.0133 20.7481 98.0487 20.1466 98.0487 19.4247C98.0487 18.6788 98.0133 18.0653 97.9425 17.584C97.7066 15.7794 97.1405 14.1072 96.2442 12.5672C95.3478 11.0032 94.2274 9.76406 92.8828 8.84973ZM82.905 18.3781C83.1881 17.1028 83.707 15.9599 84.4618 14.9493C85.2167 13.9147 86.0658 13.2169 87.0094 12.856C87.2452 12.7597 87.4222 12.7116 87.5401 12.7116C87.658 12.6875 87.9057 12.6755 88.2831 12.6755C88.6605 12.6755 88.979 12.7116 89.2385 12.7838C89.4743 12.8319 89.7574 12.9161 90.0876 13.0364C90.2056 13.0605 90.4179 13.2048 90.7245 13.4695C91.0076 13.7342 91.2435 13.9989 91.4322 14.2636C91.8096 14.817 92.1044 15.4546 92.3167 16.1764C92.529 16.8742 92.647 17.6201 92.6706 18.4141C92.6941 19.1841 92.6352 19.9781 92.4936 20.7962C92.3285 21.5903 92.069 22.3602 91.7152 23.1061C91.5029 23.5874 91.2317 24.0566 90.9014 24.5137C90.5712 24.9709 90.2056 25.3799 89.8046 25.7409C89.4036 26.1018 88.9672 26.3905 88.4954 26.6071C88.0001 26.8236 87.4693 26.9319 86.9032 26.9319C86.4079 26.9319 85.9597 26.8356 85.5587 26.6432C85.1341 26.4266 84.7567 26.1499 84.4265 25.813C84.0962 25.4521 83.8132 25.0551 83.5773 24.622C83.3414 24.1889 83.1527 23.7558 83.0111 23.3227C82.7989 22.649 82.6809 21.867 82.6573 20.9767C82.6337 20.0624 82.7163 19.1961 82.905 18.3781Z" fill="white"/>
<path d="M58.1417 26.1395C57.3425 25.0981 56.7613 24.0083 56.3981 22.8701C56.059 21.7319 55.95 20.5815 56.0711 19.4191C56.1922 18.2567 56.5434 17.1184 57.1246 16.0044C57.7058 14.8904 58.505 13.8249 59.5221 12.8077C60.8541 11.5 62.4403 10.386 64.2808 9.46571C66.1214 8.54544 68.1435 7.86735 70.3473 7.43144C71.0254 7.31035 71.6551 7.21348 72.2363 7.14083C72.8175 7.06817 73.1324 7.05607 73.1808 7.1045C73.205 7.12872 73.2534 7.32246 73.3261 7.68572C73.3987 8.04898 73.4956 8.49701 73.6167 9.02979C73.7378 9.53836 73.8589 10.0954 73.98 10.7008C74.1253 11.3062 74.2464 11.8753 74.3432 12.4081C74.4643 12.9167 74.5612 13.3526 74.6338 13.7159C74.7065 14.0549 74.7428 14.2244 74.7428 14.2244C74.7186 14.2487 74.6581 14.2608 74.5612 14.2608C74.4401 14.2608 74.0647 14.3334 73.4351 14.4787C72.8054 14.5998 72.2121 14.733 71.6551 14.8783C70.3958 15.1689 69.2091 15.5443 68.0951 16.0044C66.9811 16.4646 66.0487 16.9368 65.298 17.4212C65.0558 17.5665 64.8015 17.7481 64.5351 17.9661C64.2687 18.1598 64.0266 18.3899 63.8086 18.6563C63.5907 18.8984 63.409 19.1769 63.2637 19.4918C63.1426 19.7824 63.0821 20.073 63.0821 20.3636C63.0821 20.9448 63.2758 21.4655 63.6633 21.9256C64.075 22.3615 64.5957 22.7369 65.2253 23.0517C65.8792 23.3666 66.6057 23.6329 67.4049 23.8509C68.2041 24.0446 69.0033 24.2142 69.8024 24.3595C70.6016 24.4806 71.3524 24.5774 72.0547 24.6501C72.757 24.6985 73.3382 24.7348 73.7983 24.7591L74.4522 24.7954L74.4159 25.304C74.4159 25.4008 74.3917 25.643 74.3432 26.0305C74.319 26.3937 74.2827 26.8418 74.2342 27.3746C74.1858 27.8831 74.1253 28.4401 74.0526 29.0456C74.0042 29.6268 73.9436 30.1717 73.871 30.6802C73.8225 31.1646 73.7741 31.5763 73.7257 31.9153C73.7015 32.2302 73.6772 32.3997 73.653 32.4239C73.6046 32.4723 73.4835 32.4966 73.2898 32.4966C73.1202 32.4966 72.7328 32.4723 72.1273 32.4239C70.868 32.3513 69.5845 32.1696 68.2767 31.879C66.969 31.5884 65.6976 31.1888 64.4625 30.6802C63.2274 30.1717 62.0649 29.542 60.9752 28.7913C59.8854 28.0405 58.9409 27.1566 58.1417 26.1395Z" fill="white"/>
</svg>
