<svg width="72" height="73" viewBox="0 0 72 73" fill="none" xmlns="http://www.w3.org/2000/svg">
<rect y="0.545044" width="72" height="72" rx="36" fill="#1B9CA4"/>
<path d="M28.0149 22.6506C28.0448 22.5909 28.3733 22.5162 29.0005 22.4266C29.2693 22.3669 29.8219 22.2773 30.6581 22.1578C31.4944 22.0384 32.3904 21.9189 33.3461 21.7994C34.3019 21.6501 35.1979 21.5157 36.0341 21.3962C36.9003 21.2469 37.4976 21.1424 37.8261 21.0826C38.6027 20.9632 39.3941 20.8437 40.2005 20.7242C41.0069 20.6048 41.4848 20.545 41.6341 20.545C41.7237 20.545 41.7984 20.5749 41.8581 20.6346C41.9179 20.6645 41.9477 20.9333 41.9477 21.441C41.9776 21.9189 41.9776 22.7402 41.9477 23.905C41.9179 25.0698 41.8731 26.7872 41.8133 29.057C41.6939 33.2085 41.6043 36.5834 41.5445 39.1818C41.4848 41.7802 41.4549 43.7664 41.4549 45.1402C41.4549 45.9168 41.44 46.6784 41.4101 47.425C41.4101 48.1717 41.4101 48.6944 41.4101 48.993L41.3205 50.0682L40.9173 50.1578C39.3643 50.5162 38.0949 50.8149 37.1093 51.0538C36.1237 51.2629 35.3323 51.4421 34.7349 51.5914C34.1675 51.7109 33.7643 51.8005 33.5253 51.8602C33.2864 51.8901 33.152 51.905 33.1221 51.905C33.0624 51.905 33.0176 51.8602 32.9877 51.7706C32.9877 51.681 33.0027 51.472 33.0325 51.1434C33.0624 50.8149 33.0773 50.0682 33.0773 48.9034C33.1072 47.7088 33.1371 46.32 33.1669 44.737C33.1968 43.1541 33.2117 41.4965 33.2117 39.7642C33.2416 38.0021 33.2715 36.3893 33.3013 34.9258C33.3312 33.4325 33.3461 32.208 33.3461 31.2522C33.3461 30.2666 33.3461 29.7738 33.3461 29.7738C33.3163 29.744 33.1669 29.744 32.8981 29.7738C32.6293 29.8037 32.2859 29.8485 31.8677 29.9082C31.4795 29.9381 31.0613 29.9829 30.6133 30.0426C30.1952 30.0725 29.8667 30.0874 29.6277 30.0874L28.7765 30.1322L28.7317 29.6842C28.7019 29.5648 28.672 29.3408 28.6421 29.0122C28.6123 28.6538 28.5824 28.2954 28.5525 27.937C28.3136 26.0554 28.1493 24.7264 28.0597 23.9498C28 23.1434 27.9851 22.7104 28.0149 22.6506Z" fill="white"/>
</svg>
