<svg width="72" height="73" viewBox="0 0 72 73" fill="none" xmlns="http://www.w3.org/2000/svg">
<rect y="0.545044" width="72" height="72" rx="36" fill="#1B9CA4"/>
<path d="M31.2084 24.9539C30.9101 24.8796 30.6305 24.8054 30.3695 24.7311C30.1458 24.6569 30.034 24.6012 30.034 24.5641C30.034 24.5641 30.1644 24.1743 30.4254 23.3946C30.6864 22.615 30.966 21.7611 31.2643 20.833C31.5999 19.8677 31.9168 18.9767 32.215 18.16C32.5133 17.3432 32.6811 16.8977 32.7184 16.8235L32.8302 16.545L33.9487 16.7121C37.8635 17.269 41.0513 18.7169 43.512 21.0558C44.1458 21.6126 44.6491 22.1509 45.022 22.6707C45.4321 23.1905 45.7863 23.7659 46.0846 24.397C46.4947 25.1766 46.7557 25.8263 46.8675 26.3461C46.9794 26.8658 47.0353 27.5898 47.0353 28.5179C47.0353 29.1862 47.0166 29.6502 46.9794 29.9101C46.9421 30.1329 46.8675 30.4484 46.7557 30.8568C46.3828 32.0448 45.7863 33.14 44.966 34.1424C44.1831 35.1448 43.2324 36.0172 42.1138 36.7597C41.6664 37.0196 41.4427 37.1866 41.4427 37.2609C41.48 37.298 41.5173 37.3166 41.5546 37.3166L41.8901 37.4836C42.5985 37.8178 43.3815 38.3375 44.239 39.0429C45.0965 39.7112 45.7676 40.3608 46.2523 40.992C46.5506 41.3632 46.8489 41.8644 47.1471 42.4955C47.4827 43.0895 47.7064 43.5907 47.8182 43.9991C47.8555 44.1847 47.8928 44.4261 47.9301 44.7231C47.9674 44.9829 47.986 45.2614 47.986 45.5584C48.0233 46.1895 47.986 46.7649 47.8742 47.2847C47.7996 47.8044 47.6132 48.3428 47.3149 48.8996C46.532 50.5703 45.1897 51.981 43.2883 53.1319C41.3868 54.2457 39.1498 54.9696 36.5772 55.3037C35.9434 55.4151 35.1791 55.4894 34.2843 55.5265C33.4268 55.5636 32.6811 55.545 32.0473 55.4708C31.4134 55.3965 30.7983 55.3223 30.2017 55.248C29.6052 55.1738 28.9714 55.0438 28.3003 54.8582C27.6292 54.6726 27.2377 54.5612 27.1258 54.5241C27.014 54.4498 26.9767 54.2642 27.014 53.9672C27.0513 53.8187 27.0885 53.4846 27.1258 52.9648C27.1631 52.408 27.219 51.814 27.2936 51.1828C27.4055 50.1805 27.4987 49.3637 27.5732 48.7326C27.6478 48.1014 27.7037 47.6003 27.741 47.229C27.8156 46.8578 27.8715 46.5979 27.9088 46.4494C27.9461 46.3009 27.9834 46.2266 28.0206 46.2266C28.0579 46.1895 28.1698 46.1895 28.3562 46.2266C28.5799 46.2266 28.8409 46.2637 29.1391 46.338C29.9594 46.5236 30.6119 46.635 31.0965 46.6721C31.5812 46.7092 32.1591 46.7278 32.8302 46.7278C34.6571 46.7278 35.9061 46.4494 36.5772 45.8925C36.9874 45.5212 37.1924 45.0943 37.1924 44.6117C37.1924 43.9434 36.745 43.2009 35.8502 42.3842C34.9554 41.5674 33.781 40.8063 32.3269 40.101C32.1405 40.0267 31.9727 39.9525 31.8236 39.8782C31.7117 39.804 31.5999 39.7297 31.488 39.6555C31.3762 39.5812 31.2643 39.5255 31.1525 39.4884C31.1525 39.4513 31.1338 39.3028 31.0965 39.0429C31.0593 38.783 31.022 38.486 30.9847 38.1519L30.8169 36.8711L31.5999 36.3699C34.1724 34.6993 35.8129 33.0657 36.5213 31.4694C37.2297 29.8359 36.9314 28.4065 35.6265 27.1814C34.6571 26.2904 33.1844 25.5479 31.2084 24.9539Z" fill="white"/>
</svg>
