<svg width="72" height="73" viewBox="0 0 72 73" fill="none" xmlns="http://www.w3.org/2000/svg">
<rect y="0.545044" width="72" height="72" rx="36" fill="#1B9CA4"/>
<path d="M46.2791 56.3005C46.0813 56.2614 45.5275 56.144 44.6176 55.9484C43.7473 55.7528 42.778 55.5376 41.7099 55.3028C40.6418 55.0289 39.7319 54.8138 38.9802 54.6572C38.2286 54.4616 37.833 54.3247 37.7934 54.2464C37.7538 54.2073 37.7341 53.64 37.7341 52.5445C37.7341 51.4099 37.7341 50.0405 37.7341 48.4363V42.7436L37.3187 42.6262C37.2 42.5871 36.8242 42.4893 36.1912 42.3328C35.5978 42.1763 34.8659 42.0002 33.9956 41.8046C33.1253 41.5699 32.1758 41.3155 31.1473 41.0417C30.1187 40.7678 29.1495 40.5135 28.2396 40.2787C27.3297 40.044 26.5187 39.8483 25.8066 39.6918C25.0945 39.4962 24.6 39.3593 24.3231 39.281C23.611 39.0854 23.0571 38.9485 22.6615 38.8702C22.3055 38.7528 22.0286 38.655 21.8308 38.5768C21.633 38.4985 21.4945 38.4398 21.4154 38.4007C21.3758 38.3225 21.3165 38.2442 21.2374 38.166L21 37.8138L22.3648 33.2949C22.5626 32.6689 22.7802 31.945 23.0176 31.1234C23.2549 30.2627 23.4923 29.4019 23.7297 28.5411C24.0066 27.6413 24.2637 26.7609 24.5011 25.9002C24.778 25.0394 25.0154 24.2569 25.2132 23.5527C25.6484 22.1442 26.044 20.8139 26.4 19.5619C26.756 18.2708 26.9934 17.4491 27.1121 17.097C27.389 16.3536 27.5275 15.9037 27.5275 15.7472C27.5275 15.6298 27.567 15.5711 27.6462 15.5711C27.7253 15.4929 28.3385 15.5907 29.4857 15.8646C30.633 16.1384 32.5121 16.6666 35.1231 17.4491C36.1516 17.7621 36.9033 17.9969 37.378 18.1534C37.8923 18.3099 38.1692 18.4077 38.2088 18.4468C38.2484 18.486 38.2484 18.6229 38.2088 18.8577C38.1692 19.0533 38.0506 19.425 37.8527 19.9727C37.6549 20.5205 37.3582 21.3225 36.9626 22.3789C36.6066 23.3962 36.0923 24.7656 35.4198 26.4871C34.8659 28.0521 34.3714 29.4215 33.9363 30.5952C33.5011 31.7299 33.2835 32.3363 33.2835 32.4145C33.2835 32.5319 33.3033 32.6102 33.3429 32.6493C33.3824 32.6884 33.5407 32.7471 33.8176 32.8254C33.9758 32.8645 34.3121 32.9623 34.8264 33.1188C35.3407 33.2362 35.8549 33.3731 36.3692 33.5296C36.9231 33.6861 37.4176 33.8426 37.8527 33.9991C38.3275 34.1165 38.5846 34.1752 38.6242 34.1752C38.7033 34.2143 38.7429 34.1165 38.7429 33.8817C38.7824 33.647 38.822 33.021 38.8615 32.0037V29.7736L41.3538 29.8323C42.0659 29.8323 42.7978 29.8518 43.5495 29.891C44.3011 29.891 44.9934 29.9105 45.6264 29.9497C46.2593 29.9888 46.7934 30.0279 47.2286 30.067C47.6637 30.1062 47.9011 30.1453 47.9407 30.1844C47.9802 30.2235 48 30.5561 48 31.1821C48 31.8081 47.9802 32.5906 47.9407 33.5296C47.9011 34.3904 47.8615 35.3098 47.822 36.2879C47.822 37.227 47.8022 38.342 47.7626 39.6332C47.7626 40.8852 47.7429 42.3524 47.7033 44.0347C47.7033 45.7171 47.7033 47.7321 47.7033 50.0796C47.6637 51.5664 47.6242 52.8966 47.5846 54.0704C47.5846 55.205 47.5846 55.831 47.5846 55.9484C47.5055 56.2614 47.4066 56.457 47.2879 56.5353C47.1692 56.5744 46.833 56.4961 46.2791 56.3005Z" fill="white"/>
</svg>
