<svg width="72" height="73" viewBox="0 0 72 73" fill="none" xmlns="http://www.w3.org/2000/svg">
<rect y="0.545044" width="72" height="72" rx="36" fill="#1B9CA4"/>
<path d="M36.2605 41.977C35.8792 42.3584 35.4805 42.7224 35.0645 43.069C34.6485 43.4157 34.3539 43.6757 34.1805 43.849C33.6952 44.265 33.4525 44.4904 33.4525 44.525C33.4525 44.5597 33.5912 44.5944 33.8685 44.629C34.1805 44.6637 34.7005 44.6984 35.4285 44.733C35.6365 44.733 35.9659 44.7504 36.4165 44.785C36.9019 44.8197 37.4045 44.8544 37.9245 44.889C38.4792 44.9237 39.0165 44.9757 39.5365 45.045C40.0912 45.0797 40.5765 45.1144 40.9925 45.149C43.2112 45.3224 44.7019 45.4437 45.4645 45.513C46.2619 45.5477 46.6779 45.5997 46.7125 45.669C46.7125 45.669 46.6952 45.981 46.6605 46.605C46.6259 47.1944 46.5565 47.905 46.4525 48.737C46.3832 49.569 46.2965 50.4184 46.1925 51.285C46.1232 52.117 46.0539 52.7757 45.9845 53.261C45.9152 53.6424 45.8632 53.8677 45.8285 53.937C45.7939 54.0064 45.7245 54.041 45.6205 54.041C45.5512 54.0757 45.4819 54.093 45.4125 54.093C45.3432 54.0584 45.2912 54.041 45.2565 54.041C45.1872 54.041 44.8405 54.0064 44.2165 53.937C43.5925 53.8677 42.5005 53.781 40.9405 53.677C40.3512 53.6077 39.8139 53.5557 39.3285 53.521C38.8779 53.4864 38.6179 53.469 38.5485 53.469C38.2712 53.3997 37.9765 53.365 37.6645 53.365C37.5259 53.365 37.1965 53.3477 36.6765 53.313C36.1565 53.2437 35.5499 53.1744 34.8565 53.105C34.1632 53.0357 33.4352 52.9664 32.6725 52.897C31.9445 52.8277 31.2685 52.7757 30.6445 52.741C29.3619 52.637 28.3045 52.5504 27.4725 52.481C26.6752 52.377 26.0339 52.3077 25.5485 52.273C25.0632 52.2037 24.6819 52.1517 24.4045 52.117C24.1619 52.0824 23.9539 52.0477 23.7805 52.013C23.5725 51.9784 23.4859 51.8917 23.5205 51.753C23.5205 51.6837 23.4859 51.337 23.4165 50.713C23.3472 50.0544 23.2605 49.3264 23.1565 48.529C23.0872 47.697 23.0005 46.8997 22.8965 46.137C22.8272 45.3397 22.7752 44.785 22.7405 44.473L22.6365 43.797L22.9485 43.589C23.1565 43.4157 23.3472 43.2597 23.5205 43.121C23.6939 42.9477 24.0405 42.6184 24.5605 42.133C25.2539 41.509 25.9472 40.885 26.6405 40.261C27.3685 39.6024 28.0272 38.9957 28.6165 38.441C29.2405 37.8864 29.7779 37.4184 30.2285 37.037C30.7139 36.621 31.0605 36.309 31.2685 36.101C31.3725 36.0317 31.5632 35.8584 31.8405 35.581C32.1525 35.3037 32.4645 35.009 32.7765 34.697C33.4699 34.0037 34.0765 33.449 34.5965 33.033C35.1165 32.5824 35.6192 32.149 36.1045 31.733C36.2779 31.5597 36.4685 31.3864 36.6765 31.213C36.8845 31.005 37.0232 30.8317 37.0925 30.693C37.5085 30.1384 37.7859 29.5664 37.9245 28.977C38.0632 28.3877 38.0285 27.885 37.8205 27.469C37.4045 26.6024 36.5205 26.169 35.1685 26.169C33.2965 26.169 31.4592 26.8624 29.6565 28.249C29.3445 28.4917 29.1365 28.613 29.0325 28.613C28.9979 28.613 28.9632 28.613 28.9285 28.613C28.8939 28.5784 28.8072 28.4744 28.6685 28.301C28.5645 28.093 28.3739 27.781 28.0965 27.365C27.8539 26.9144 27.4899 26.2557 27.0045 25.389C26.5885 24.6264 26.2072 23.9504 25.8605 23.361C25.5139 22.737 25.3059 22.373 25.2365 22.269C24.9245 21.7837 24.8899 21.541 25.1325 21.541C25.2019 21.541 25.3232 21.4544 25.4965 21.281C25.5659 21.2117 25.6872 21.1077 25.8605 20.969C26.0685 20.8304 26.2592 20.6744 26.4325 20.501C27.0219 20.0504 27.6112 19.6864 28.2005 19.409C28.7899 19.097 29.4659 18.8024 30.2285 18.525C30.6445 18.3517 31.0085 18.2304 31.3205 18.161C31.6672 18.0917 32.1872 17.9877 32.8805 17.849C33.0192 17.8144 33.2619 17.797 33.6085 17.797C33.9552 17.7624 34.3192 17.745 34.7005 17.745C35.0819 17.745 35.4459 17.7624 35.7925 17.797C36.1739 17.797 36.4685 17.8144 36.6765 17.849C37.9592 17.9877 39.2072 18.317 40.4205 18.837C41.6339 19.3224 42.6739 19.929 43.5405 20.657C44.5459 21.5237 45.3259 22.4944 45.8805 23.569C46.4699 24.6437 46.8165 25.7704 46.9205 26.949C47.0592 28.093 46.9725 29.2544 46.6605 30.433C46.3485 31.6117 45.7939 32.7557 44.9965 33.865C44.8232 34.1077 44.6672 34.3157 44.5285 34.489C44.3899 34.6624 44.2165 34.853 44.0085 35.061C43.8352 35.2344 43.6099 35.4424 43.3325 35.685C43.0899 35.9277 42.7605 36.2397 42.3445 36.621C41.9632 36.933 41.6339 37.2104 41.3565 37.453C41.1139 37.661 40.9925 37.7824 40.9925 37.817C40.9579 37.8517 40.7845 38.0077 40.4725 38.285C40.1605 38.5624 39.7792 38.8917 39.3285 39.273C38.8779 39.6544 38.3405 40.1224 37.7165 40.677C37.1272 41.197 36.6419 41.6304 36.2605 41.977Z" fill="white"/>
</svg>
